<?xml version="1.0" encoding="UTF-8"?>
<svg xmlns="http://www.w3.org/2000/svg" xmlns:xlink="http://www.w3.org/1999/xlink" version="1.2" >
<font id="Cador regular">
<font-face  font-family="Cador" units-per-em="1024" ascent="750" descent="-140" font-style="normal" font-weight="400" font-stretch="normal" cap-height="810" x-height="375" underline-position="-125" underline-thickness="50" />
<missing-glyph  horiz-adv-x="100" d="" />
<glyph glyph-name="NULL" d="" />
<glyph glyph-name="CR" unicode="&#xd;" horiz-adv-x="256" d="" />
<glyph glyph-name="space" unicode="&#x20;" horiz-adv-x="143" d="" />
<glyph glyph-name="exclam" unicode="&#x21;" horiz-adv-x="125" d="M28 0 L96 0 L96 69 L28 69 L28 0 L28 0 Z M29 700 L29 464 L60 165 L64 165 L95 464 L95 700 L29 700 L29 700 Z " />
<glyph glyph-name="quotedbl" unicode="&#x22;" horiz-adv-x="289" d="M175 700 L175 520 L209 520 L209 700 L175 700 L175 700 Z M80 700 L80 520 L114 520 L114 700 L80 700 L80 700 Z " />
<glyph glyph-name="numbersign" unicode="&#x23;" horiz-adv-x="336" d="M103 433 L82 251 L31 251 L31 215 L78 215 L53 0 L57 0 L82 215 L213 215 L188 0 L192 0 L217 215 L296 215 L296 251 L221 251 L242 433 L306 433 L306 468 L246 468 L273 700 L269 700 L242 468 L111 468 L138 700 L134 700 L107 468 L41 468 L41 433 L103 433 L103 433 Z M107 433 L238 433 L217 251 L86 251 L107 433 L107 433 Z " />
<glyph glyph-name="dollar" unicode="&#x24;" horiz-adv-x="298" d="M132 740 L132 708 C75 698 26 642 26 583 C26 520 70 411 128 332 C129 330 130 328 131 326 L131 1 C103 12 80 49 80 88 L80 179 L24 179 L24 88 C24 42 74 -2 131 -9 L131 -50 L165 -50 L165 -9 C222 1 272 60 272 121 C272 176 227 288 169 368 C168 370 167 372 166 374 L166 699 C194 687 217 646 217 603 L217 521 L273 521 L273 603 C273 654 223 702 166 710 L166 741 L132 740 L132 740 Z M132 431 C102 489 81 552 81 594 C81 641 104 686 132 700 L132 431 L132 431 Z M166 272 C196 214 217 151 217 114 C217 65 194 19 166 5 L166 272 L166 272 Z " />
<glyph glyph-name="percent" unicode="&#x25;" horiz-adv-x="412" d="M369 49 C369 24 356 1 341 1 C328 1 315 24 315 49 L315 316 C315 340 328 363 341 363 C356 363 369 340 369 315 L369 49 L369 49 Z M414 50 L414 314 C414 342 379 369 341 369 C304 369 269 342 269 314 L269 50 C269 22 304 -5 341 -5 C379 -5 414 22 414 50 L414 50 Z M110 379 C110 354 97 331 82 331 C69 331 56 354 56 379 L56 646 C56 670 69 693 82 693 C97 693 110 670 110 645 L110 379 L110 379 Z M155 380 L155 644 C155 672 120 699 82 699 C45 699 10 672 10 644 L10 380 C10 352 45 325 82 325 C120 325 155 352 155 380 L155 380 Z M10 0 L15 0 L402 700 L398 700 L10 0 L10 0 Z " />
<glyph glyph-name="ampersand" unicode="&#x26;" horiz-adv-x="338" d="M111 342 C143 265 179 182 210 114 C194 71 173 45 147 45 C102 45 79 122 79 204 C79 256 92 304 111 342 L111 342 Z M149 398 C206 468 248 541 248 583 C248 648 202 710 141 710 C79 710 32 643 32 571 C32 548 58 475 93 388 C51 328 20 245 20 160 C20 73 58 -10 136 -10 C177 -10 210 17 236 61 C247 37 257 16 265 0 L333 0 C317 31 294 79 268 135 C291 208 303 301 303 397 L248 397 C248 330 243 264 234 208 C205 272 175 339 150 398 L149 398 L149 398 Z M133 439 C105 505 86 556 86 571 C86 613 110 653 141 653 C171 653 194 617 194 578 C194 541 168 489 132 439 L133 439 L133 439 Z " />
<glyph glyph-name="quotesingle" unicode="&#x27;" horiz-adv-x="194" d="M80 700 L80 520 L114 520 L114 700 L80 700 L80 700 Z " />
<glyph glyph-name="parenleft" unicode="&#x28;" horiz-adv-x="148" d="M140 700 C91 594 45 435 45 314 C45 193 91 33 140 -73 L147 -73 C115 -4 85 145 85 314 C85 482 115 631 147 700 L140 700 L140 700 Z " />
<glyph glyph-name="parenright" unicode="&#x29;" horiz-adv-x="148" d="M40 -73 C89 33 135 192 135 313 C135 434 89 594 40 700 L33 700 C65 631 95 482 95 313 C95 145 65 -4 33 -73 L40 -73 L40 -73 Z " />
<glyph glyph-name="asterisk" unicode="&#x2a;" horiz-adv-x="160" d="M80 637 C61 633 13 632 13 632 L24 598 C24 598 62 626 81 633 C79 614 65 568 65 568 L101 568 C101 568 87 614 85 633 C104 626 142 598 142 598 L153 632 C153 632 105 633 86 637 C98 652 137 680 137 680 L107 702 C107 702 92 657 82 640 C72 657 57 702 57 702 L27 680 C27 680 66 652 78 637 L80 637 L80 637 Z " />
<glyph glyph-name="plus" unicode="&#x2b;" horiz-adv-x="290" d="M142 405 L142 303 L40 303 L40 297 L142 297 L142 195 L148 195 L148 297 L250 297 L250 303 L148 303 L148 405 L142 405 L142 405 Z " />
<glyph glyph-name="comma" unicode="&#x2c;" horiz-adv-x="143" d="M52 92 L23 -70 L29 -70 L117 92 L52 92 L52 92 Z " />
<glyph glyph-name="hyphen" unicode="&#x2d;" horiz-adv-x="224" d="M12 376 L212 376 L212 428 L12 428 L12 376 L12 376 Z " />
<glyph glyph-name="period" unicode="&#x2e;" horiz-adv-x="222" d="M72 0 L151 0 L151 79 L72 79 L72 0 L72 0 Z " />
<glyph glyph-name="slash" unicode="&#x2f;" horiz-adv-x="125" d="M10 -90 L15 -90 L115 700 L110 700 L10 -90 L10 -90 Z " />
<glyph glyph-name="zero" unicode="0" horiz-adv-x="331" d="M225 94 C225 45 196 -2 165 -2 C134 -2 105 45 105 94 L105 607 C105 656 134 702 165 702 C196 702 225 655 225 606 L225 94 L225 94 Z M291 97 L291 603 C291 658 230 710 165 710 C101 710 40 658 40 603 L40 97 C40 42 101 -10 165 -10 C230 -10 291 42 291 97 L291 97 Z " />
<glyph glyph-name="one" unicode="1" horiz-adv-x="218" d="M4 502 L5 501 C52 501 97 550 113 594 L113 0 L179 0 L179 700 L112 700 L112 625 C112 577 60 502 5 502 L4 502 L4 502 Z " />
<glyph glyph-name="two" unicode="2" horiz-adv-x="310" d="M28 506 L93 506 L93 607 C93 655 122 701 152 701 C182 701 211 648 211 592 C211 481 180 384 147 326 C86 219 28 104 28 66 L28 0 L285 0 L285 57 L38 57 L38 66 C38 101 95 215 156 321 C218 430 277 546 277 581 C277 647 216 710 152 710 C88 710 28 659 28 604 L28 506 L28 506 Z " />
<glyph glyph-name="three" unicode="3" horiz-adv-x="294" d="M21 104 L19 105 L21 105 L21 104 L21 104 Z M20 605 L20 605 L20 605 Z M21 75 C37 28 87 -10 140 -10 C203 -10 263 46 263 106 L263 308 C263 335 222 362 172 370 C223 380 265 412 265 446 L265 604 C265 659 204 710 140 710 C76 710 16 659 16 605 C16 597 17 573 17 573 L82 573 C82 573 83 600 83 609 C83 656 111 701 140 701 C170 701 199 658 199 612 L199 434 C199 403 170 373 140 373 L88 373 L88 365 C88 365 127 364 140 364 C170 364 199 339 199 313 L199 95 C199 46 171 -1 141 -1 C111 -1 82 47 82 97 L82 134 L17 134 L17 105 C17 95 19 85 22 75 L21 75 L21 75 Z " />
<glyph glyph-name="four" unicode="4" horiz-adv-x="320" d="M306 208 L222 208 L222 313 C222 367 212 522 212 522 L210 522 C210 522 158 367 158 313 L158 208 L29 208 C145 525 254 700 254 700 L199 700 C199 700 112 460 19 205 L19 200 L158 200 L158 0 L222 0 L222 200 L306 200 L306 208 L306 208 Z " />
<glyph glyph-name="five" unicode="5" horiz-adv-x="303" d="M25 133 L25 105 C25 46 86 -10 150 -10 C214 -10 274 46 274 105 L274 316 C274 371 221 422 164 422 C136 422 109 400 94 370 C97 397 101 423 101 423 L101 687 C110 666 138 649 168 649 C224 649 277 674 277 700 L248 700 L248 703 L252 700 L219 700 C219 678 193 658 166 658 C132 658 100 678 100 700 L35 700 L35 322 L88 322 C88 369 123 414 161 414 C185 414 207 372 207 328 L207 95 C207 46 179 -1 149 -1 C118 -1 89 46 89 95 L89 133 L25 133 L25 133 Z " />
<glyph glyph-name="six" unicode="6" horiz-adv-x="321" d="M280 599 L283 598 L280 598 L280 599 L280 599 Z M104 306 C104 351 144 393 187 393 C204 393 219 351 220 306 C220 306 224 148 224 93 C224 45 193 -1 161 -1 C132 -1 104 44 104 91 L104 306 L104 306 Z M285 598 C285 656 225 710 161 710 C98 710 39 657 39 600 C39 346 38 100 38 100 C38 43 98 -10 161 -10 C224 -10 284 44 284 102 C284 151 286 294 286 294 C287 350 239 402 190 402 C151 402 114 369 103 329 L103 607 C103 655 131 701 160 701 C191 701 220 655 220 606 C220 596 219 576 219 566 L285 566 C285 574 284 590 284 598 L285 598 L285 598 Z " />
<glyph glyph-name="seven" unicode="7" horiz-adv-x="303" d="M25 643 L25 644 C54 651 205 687 273 691 C257 640 67 16 67 1 L130 1 C130 1 131 4 131 6 L130 6 C134 122 282 692 282 692 L282 701 L19 701 L19 644 L25 643 L25 643 Z " />
<glyph glyph-name="eight" unicode="8" horiz-adv-x="331" d="M225 460 C225 417 196 376 165 376 C134 376 105 417 105 460 L105 609 C105 657 134 702 165 702 C196 702 225 657 225 609 L225 460 L225 460 Z M225 92 C225 44 196 -2 165 -2 C134 -2 105 44 105 92 L105 279 C105 325 134 368 165 368 C196 368 225 325 225 279 L225 92 L225 92 Z M291 95 L291 268 C291 315 247 359 194 371 C247 382 291 422 291 464 L291 606 C291 660 230 711 166 711 C102 711 41 660 41 606 L41 464 C41 422 85 382 138 371 C85 359 41 315 41 268 L41 95 C41 41 102 -10 166 -10 C231 -10 292 41 292 95 L291 95 L291 95 Z " />
<glyph glyph-name="nine" unicode="9" horiz-adv-x="324" d="M35 133 L35 105 C35 46 96 -10 160 -10 C224 -10 284 46 284 105 L284 605 C284 659 224 710 160 710 C96 710 35 658 35 602 L35 406 C35 350 85 297 139 297 C169 297 199 314 218 338 L218 95 C218 46 190 -1 160 -1 C129 -1 100 46 100 95 L100 133 L35 133 L35 133 Z M218 395 C218 349 181 306 142 306 C120 306 99 349 99 395 C99 510 100 611 100 611 C100 658 129 702 160 702 C190 702 218 653 218 601 L218 395 L218 395 Z " />
<glyph glyph-name="colon" unicode="&#x3a;" horiz-adv-x="198" d="M65 294 L134 294 L134 363 L65 363 L65 294 L65 294 Z M65 0 L134 0 L134 69 L65 69 L65 0 L65 0 Z " />
<glyph glyph-name="semicolon" unicode="&#x3b;" horiz-adv-x="208" d="M91 294 L160 294 L160 363 L91 363 L91 294 L91 294 Z M93 92 L64 -70 L70 -70 L158 92 L93 92 L93 92 Z " />
<glyph glyph-name="less" unicode="&#x3c;" horiz-adv-x="341" d="M296 509 L296 564 L35 350 L35 324 L296 110 L296 165 L89 337 L296 509 L296 509 Z " />
<glyph glyph-name="equal" unicode="&#x3d;" horiz-adv-x="340" d="M40 248 L40 241 L300 241 L300 248 L40 248 L40 248 Z M40 359 L40 352 L300 352 L300 359 L40 359 L40 359 Z " />
<glyph glyph-name="greater" unicode="&#x3e;" horiz-adv-x="355" d="M45 509 L265 337 L45 165 L45 110 L320 323 L320 351 L45 564 L45 509 L45 509 Z " />
<glyph glyph-name="question" unicode="&#x3f;" horiz-adv-x="284" d="M105 0 L173 0 L173 69 L105 69 L105 0 L105 0 Z M16 514 L77 514 C77 514 80 587 80 612 C80 658 109 701 139 701 C170 701 199 648 199 591 C199 516 183 426 130 362 C130 362 140 278 140 170 L145 170 C145 273 138 358 138 358 C234 473 263 545 263 584 C263 649 203 710 139 710 C75 710 15 662 15 611 C15 586 16 514 16 514 L16 514 Z " />
<glyph glyph-name="at" unicode="&#x40;" horiz-adv-x="374" d="M334 85 L331 85 C318 38 249 -7 189 -7 C123 -7 60 52 60 114 L60 586 C60 648 123 707 189 707 C255 707 318 648 318 586 L318 151 C318 129 300 108 281 108 C283 108 284 128 284 149 L284 531 C284 576 238 618 189 618 C149 618 112 573 112 525 L112 436 L159 436 L159 537 C159 575 174 611 189 611 C213 611 235 578 235 543 L235 419 C235 398 204 366 171 354 C138 342 106 308 106 285 L106 185 C106 144 138 105 172 105 C200 105 227 141 234 184 L234 152 C234 128 255 105 278 105 C308 105 337 127 337 151 L337 586 C337 650 265 710 188 710 C111 710 38 650 38 586 L38 114 C38 50 111 -10 188 -10 C250 -10 320 36 333 85 L334 85 L334 85 Z M234 403 L234 206 C234 157 204 111 173 111 C163 111 153 153 153 197 C153 197 154 238 154 285 C154 315 163 346 173 350 C199 359 224 382 234 403 L234 403 Z " />
<glyph glyph-name="A" unicode="A" horiz-adv-x="313" d="M38 0 C38 1 39 5 39 5 L79 237 L204 237 L231 5 C230 5 230 5 230 4 L231 0 L297 0 C297 2 297 4 296 5 L204 700 L149 700 L150 693 L29 5 C28 4 28 2 28 0 L38 0 L38 0 Z M202 246 L80 246 L153 666 L202 246 L202 246 Z " />
<glyph glyph-name="B" unicode="B" horiz-adv-x="338" d="M161 373 L105 373 L105 691 L161 691 C194 691 225 643 225 593 L225 442 C225 406 194 373 161 373 L161 373 Z M197 371 C249 383 291 420 291 458 L291 595 C291 649 228 699 161 699 L40 699 L40 -1 L175 -1 C238 -1 298 50 298 104 L298 275 C298 319 251 361 197 370 L197 371 L197 371 Z M105 8 L105 363 L175 363 C204 363 232 319 232 272 L232 104 C232 55 204 8 175 8 L105 8 L105 8 Z " />
<glyph glyph-name="C" unicode="C" horiz-adv-x="295" d="M270 602 L270 603 L275 602 C275 612 273 622 270 631 C255 675 208 710 159 710 C98 710 41 658 41 602 L41 98 C41 42 98 -10 159 -10 C219 -10 276 42 276 98 L276 129 L266 129 L266 97 C266 47 214 -1 159 -1 C132 -1 106 42 106 87 C106 87 105 339 105 613 C105 658 131 701 159 701 C214 701 266 653 266 603 L266 570 L276 570 L276 602 L270 602 L270 602 Z " />
<glyph glyph-name="D" unicode="D" horiz-adv-x="338" d="M164 0 C233 0 298 51 298 105 L298 596 C298 650 233 700 164 700 L40 700 L40 0 L164 0 L164 0 Z M105 9 L105 691 L164 691 C199 691 232 643 232 593 L232 105 C232 56 199 9 164 9 L105 9 L105 9 Z " />
<glyph glyph-name="E" unicode="E" horiz-adv-x="275" d="M255 9 L105 9 L105 360 L211 360 L211 370 L105 370 L105 691 L250 691 L250 700 L40 700 L40 0 L255 0 L255 9 L255 9 Z " />
<glyph glyph-name="F" unicode="F" horiz-adv-x="260" d="M216 350 L105 350 L105 691 L240 691 L240 700 L40 700 L40 0 L105 0 L105 340 L216 340 L216 350 L216 350 Z " />
<glyph glyph-name="G" unicode="G" horiz-adv-x="329" d="M284 600 L287 599 L284 599 L284 600 L284 600 Z M183 338 L183 329 L223 329 C223 291 224 146 224 91 C224 43 195 -2 164 -2 C134 -2 105 41 105 86 C105 86 104 338 104 612 C104 657 133 700 164 700 C194 700 223 656 223 609 L223 566 L289 566 L289 598 C289 608 287 618 284 627 L284 627 L284 627 C268 672 217 709 164 709 C100 709 40 657 40 601 L40 97 C40 41 100 -11 164 -11 C200 -11 235 6 258 31 C269 16 286 2 303 -6 L304 -5 C296 -2 288 49 288 99 C288 160 289 337 289 337 L183 338 L183 338 Z " />
<glyph glyph-name="H" unicode="H" horiz-adv-x="338" d="M298 0 L298 700 L232 700 L232 368 L105 368 L105 700 L40 700 L40 0 L105 0 L105 360 L232 360 L232 0 L298 0 L298 0 Z " />
<glyph glyph-name="I" unicode="I" horiz-adv-x="145" d="M105 0 L105 700 L39 700 L39 0 L105 0 L105 0 Z " />
<glyph glyph-name="J" unicode="J" horiz-adv-x="295" d="M193 700 L193 91 C193 44 163 -1 132 -1 C102 -1 74 41 74 86 L74 142 L9 142 C9 121 8 94 8 94 C7 40 68 -10 132 -10 C195 -10 255 41 255 95 L255 700 L193 700 L193 700 Z " />
<glyph glyph-name="K" unicode="K" horiz-adv-x="307" d="M230 5 L232 0 L302 0 C302 1 302 2 301 3 L175 400 L137 309 C168 207 200 104 230 3 L230 5 L230 5 Z M291 698 L105 253 L105 698 L40 698 L40 -2 L105 -2 L105 233 L299 693 L301 698 L291 698 L291 698 Z " />
<glyph glyph-name="L" unicode="L" horiz-adv-x="255" d="M240 9 L105 9 L105 700 L40 700 L40 0 L240 0 L240 9 L240 9 Z " />
<glyph glyph-name="M" unicode="M" horiz-adv-x="399" d="M359 0 L359 634 L373 700 L327 700 L217 194 L108 700 L40 700 L40 0 L105 0 L105 681 L220 147 L221 147 L221 147 L239 62 L243 79 L350 586 L350 0 L359 0 L359 0 Z " />
<glyph glyph-name="N" unicode="N" horiz-adv-x="339" d="M291 700 L291 90 L94 700 L37 700 L54 648 L54 0 L63 0 L63 620 L264 0 L320 0 L299 65 L299 700 L291 700 L291 700 Z " />
<glyph glyph-name="O" unicode="O" horiz-adv-x="327" d="M221 86 C221 41 193 -1 163 -1 C133 -1 104 41 104 86 L104 614 C104 659 133 701 163 701 C193 701 221 659 221 614 L221 86 L221 86 Z M287 98 L287 602 C287 658 227 710 163 710 C99 710 39 658 39 602 L39 98 C39 42 99 -10 163 -10 C227 -10 287 42 287 98 L287 98 Z " />
<glyph glyph-name="P" unicode="P" horiz-adv-x="323" d="M105 0 L105 284 L173 284 C237 284 298 336 298 391 L298 596 C298 650 237 700 173 700 L40 700 L40 0 L105 0 L105 0 Z M105 292 L105 691 L173 691 C203 691 232 643 232 593 L232 391 C232 340 203 292 173 292 L105 292 L105 292 Z " />
<glyph glyph-name="Q" unicode="Q" horiz-adv-x="337" d="M221 86 C221 41 193 -1 163 -1 C133 -1 104 41 104 86 L104 614 C104 659 133 701 163 701 C193 701 221 659 221 614 L221 86 L221 86 Z M317 -16 C302 6 287 62 287 98 L287 602 C287 658 227 710 163 710 C99 710 39 658 39 602 L39 98 C39 42 99 -10 163 -10 C214 -10 263 24 280 66 C286 35 301 0 317 -16 L317 -16 Z " />
<glyph glyph-name="R" unicode="R" horiz-adv-x="338" d="M232 0 L298 0 L298 260 C298 302 256 342 205 354 C256 368 298 413 298 460 L298 596 C298 650 237 700 173 700 L40 700 L40 0 L105 0 L105 348 L175 348 C204 348 232 304 232 257 L232 0 L232 0 Z M173 357 L105 357 L105 691 L173 691 C203 691 232 643 232 593 L232 460 C232 407 203 357 173 357 L173 357 Z " />
<glyph glyph-name="S" unicode="S" horiz-adv-x="296" d="M24 133 L24 89 C24 80 26 71 29 63 L29 63 C45 23 95 -10 147 -10 C210 -10 270 50 270 114 C270 178 229 297 176 375 C127 447 89 544 89 599 C89 651 118 701 148 701 C178 701 206 657 206 611 L206 573 L271 573 L271 611 C271 620 269 629 266 637 L266 637 C250 677 200 710 148 710 C85 710 25 651 25 588 C25 521 66 411 119 333 C167 263 204 157 204 102 C204 49 176 -1 147 -1 C117 -1 89 43 89 89 L89 133 L24 133 L24 133 Z " />
<glyph glyph-name="T" unicode="T" horiz-adv-x="285" d="M280 700 L5 700 L5 691 L110 691 L110 0 L175 0 L175 691 L280 691 L280 700 L280 700 Z " />
<glyph glyph-name="U" unicode="U" horiz-adv-x="313" d="M263 700 L263 94 C263 45 211 -1 156 -1 C129 -1 104 41 104 86 L104 700 L39 700 L39 98 C39 42 96 -10 156 -10 C216 -10 273 41 273 95 L273 700 L263 700 L263 700 Z " />
<glyph glyph-name="V" unicode="V" horiz-adv-x="285" d="M259 695 L174 50 L79 695 C79 695 78 699 78 700 L13 700 C13 698 13 696 14 695 L126 0 L181 0 L178 21 L269 695 C270 696 270 698 270 700 L260 700 C260 699 259 695 259 695 L259 695 Z " />
<glyph glyph-name="W" unicode="W" horiz-adv-x="445" d="M417 700 L408 700 L372 51 L242 700 L184 700 L197 640 L119 0 L90 700 L29 700 L29 695 L29 695 L69 0 L126 0 L202 613 L331 0 L382 0 L378 19 C391 244 403 470 417 695 L417 700 L417 700 Z " />
<glyph glyph-name="X" unicode="X" horiz-adv-x="281" d="M15 5 L15 4 L14 0 L23 0 C23 0 24 2 24 4 L111 337 L209 4 C209 2 210 1 210 1 L276 1 L275 4 L275 6 L275 6 L173 351 L174 351 C205 466 235 582 266 696 L266 697 L267 701 L258 701 C258 701 257 699 257 697 L170 363 L71 697 C71 699 70 700 70 700 L5 700 L6 697 L6 695 L6 695 L108 350 C77 235 47 119 16 5 L15 5 L15 5 Z " />
<glyph glyph-name="Y" unicode="Y" horiz-adv-x="336" d="M34 695 L142 296 L142 0 L208 0 L208 296 C239 429 269 562 300 695 L300 696 L301 700 L291 700 C291 700 290 697 290 695 L201 295 L191 295 L102 695 C102 697 101 699 101 699 L33 699 L34 694 L34 695 L34 695 Z " />
<glyph glyph-name="Z" unicode="Z" horiz-adv-x="292" d="M20 691 L199 691 L21 9 L20 6 L20 0 L270 0 L270 9 L88 9 L266 691 L269 700 L20 700 L20 691 L20 691 Z " />
<glyph glyph-name="bracketleft" unicode="&#x5b;" horiz-adv-x="183" d="M90 695 L173 695 L173 700 L49 700 L49 -73 L173 -73 L173 -68 L90 -68 L90 695 L90 695 Z " />
<glyph glyph-name="backslash" unicode="&#x5c;" horiz-adv-x="125" d="M110 -90 L115 -90 L15 700 L10 700 L110 -90 L110 -90 Z " />
<glyph glyph-name="bracketright" unicode="&#x5d;" horiz-adv-x="168" d="M88 695 L88 -68 L10 -68 L10 -73 L128 -73 L128 700 L10 700 L10 695 L88 695 L88 695 Z " />
<glyph glyph-name="asciicircum" unicode="&#x5e;" horiz-adv-x="465" d="M200 700 L150 640 L157 640 L233 682 L309 640 L315 640 L265 700 L200 700 L200 700 Z " />
<glyph glyph-name="underscore" unicode="&#x5f;" horiz-adv-x="310" d="M10 -59 L10 -93 L300 -93 L300 -59 L10 -59 L10 -59 Z " />
<glyph glyph-name="grave" unicode="&#x60;" horiz-adv-x="465" d="M230 640 L236 640 L194 700 L128 700 L230 640 L230 640 Z " />
<glyph glyph-name="a" unicode="a" horiz-adv-x="302" d="M34 398 L95 398 C95 398 96 485 96 515 C96 560 122 602 149 602 C185 602 205 560 205 515 L205 388 C205 344 163 319 118 306 C72 293 29 250 29 217 C29 156 30 94 30 94 C30 40 73 -10 119 -10 C158 -10 196 34 205 86 L205 0 L267 0 L267 506 C267 560 218 610 149 610 C89 610 33 560 33 506 C33 478 34 398 34 398 L34 398 Z M205 367 L205 109 C205 52 165 -2 123 -2 C107 -2 91 52 91 109 L91 217 C91 255 105 295 119 299 C158 310 195 331 206 367 L205 367 L205 367 Z " />
<glyph glyph-name="b" unicode="b" horiz-adv-x="316" d="M96 0 L96 83 C107 32 145 -10 185 -10 C235 -10 282 41 282 95 L282 506 C282 560 235 610 185 610 C145 610 107 569 96 519 L96 701 L34 701 L34 1 L96 0 L96 0 Z M96 491 C96 549 137 603 181 603 C201 603 219 549 219 492 L219 111 C219 53 201 -1 181 -1 C137 -1 96 54 96 112 L96 491 L96 491 Z " />
<glyph glyph-name="c" unicode="c" horiz-adv-x="303" d="M268 224 L258 224 L258 99 C258 47 206 -2 151 -2 C123 -2 96 46 96 96 L96 504 C96 554 123 602 151 602 C206 602 258 553 258 501 L258 370 L268 370 L268 501 C268 511 266 521 263 530 C248 574 201 610 152 610 C92 610 35 557 35 501 L35 99 C35 43 92 -10 152 -10 C212 -10 269 43 269 99 L268 224 L268 224 Z " />
<glyph glyph-name="d" unicode="d" horiz-adv-x="317" d="M282 0 L282 700 L220 700 L220 525 C211 571 172 610 131 610 C81 610 34 557 34 501 C34 396 35 199 35 94 C35 40 82 -10 131 -10 C172 -10 211 34 220 87 L220 0 L282 0 L282 0 Z M220 109 C220 52 178 -2 134 -2 C114 -2 96 52 96 109 L96 504 C96 554 114 602 134 602 C178 602 220 554 220 504 L220 109 L220 109 Z " />
<glyph glyph-name="e" unicode="e" horiz-adv-x="303" d="M268 224 L258 224 L258 99 C258 47 206 -2 151 -2 C123 -2 96 46 96 96 L96 312 L281 312 L281 501 C281 557 218 610 151 610 C91 610 34 557 34 501 L34 99 C34 43 91 -10 151 -10 C211 -10 268 43 268 99 L268 224 L268 224 Z M219 320 L96 320 L96 504 C96 554 123 602 151 602 C186 602 219 553 219 501 L219 320 L219 320 Z " />
<glyph glyph-name="f" unicode="f" horiz-adv-x="241" d="M141 0 C141 0 142 425 142 591 L226 591 L226 600 L142 600 C142 645 161 689 185 692 L231 692 L231 700 L184 700 C132 693 83 645 80 599 L9 599 L9 590 L80 590 C80 433 81 -1 81 -1 L141 0 L141 0 Z " />
<glyph glyph-name="g" unicode="g" horiz-adv-x="317" d="M219 600 C219 600 219 572 219 527 C209 573 171 611 131 611 C81 611 34 558 34 502 C34 412 35 243 35 153 C35 102 82 54 131 54 C172 54 211 96 220 146 C220 71 220 3 220 -42 C220 -67 190 -91 158 -91 C99 -91 43 -64 43 -36 L43 2 L34 2 L34 -35 C34 -68 94 -99 158 -99 C222 -99 282 -67 282 -33 L282 601 L219 600 L219 600 Z M220 161 C217 109 177 62 135 62 C115 62 97 113 97 168 L97 505 C97 555 115 603 135 603 C175 603 214 562 220 515 C220 427 220 286 220 162 L220 161 L220 161 Z " />
<glyph glyph-name="h" unicode="h" horiz-adv-x="316" d="M281 0 L281 506 C281 560 234 610 185 610 C145 610 107 568 96 518 L96 700 L34 700 L34 0 L96 0 L96 490 C96 548 138 602 182 602 C201 602 219 548 219 491 L219 0 L281 0 L281 0 Z " />
<glyph glyph-name="i" unicode="i" horiz-adv-x="132" d="M33 633 L99 633 L99 699 L33 699 L33 633 L33 633 Z M97 0 L97 600 L35 600 L35 0 L97 0 L97 0 Z " />
<glyph glyph-name="j" unicode="j" horiz-adv-x="141" d="M42 633 L108 633 L108 699 L42 699 L42 633 L42 633 Z M44 -17 C44 -37 22 -60 -1 -63 L-33 -63 L-33 -71 L0 -71 C55 -63 107 -33 107 -8 C106 -5 106 600 106 600 L44 600 L44 -17 L44 -17 Z " />
<glyph glyph-name="k" unicode="k" horiz-adv-x="280" d="M268 600 L96 222 L96 700 L34 700 L34 0 L96 0 L96 204 L125 267 L216 0 L280 0 C280 0 279 3 278 4 L160 343 L276 594 C277 594 278 599 278 599 L268 600 L268 600 Z " />
<glyph glyph-name="l" unicode="l" horiz-adv-x="132" d="M97 0 L97 700 L35 700 L35 0 L97 0 L97 0 Z " />
<glyph glyph-name="m" unicode="m" horiz-adv-x="501" d="M466 0 L466 506 C466 560 419 610 370 610 C330 610 291 567 281 516 C276 566 232 610 186 610 C146 610 108 568 97 518 L97 600 L35 600 L35 0 L97 0 L97 490 C97 548 139 602 183 602 C202 602 220 548 220 491 L220 0 L282 0 L282 490 C282 548 324 602 368 602 C387 602 405 548 405 491 L405 0 L466 0 L466 0 Z " />
<glyph glyph-name="n" unicode="n" horiz-adv-x="316" d="M281 0 L281 506 C281 560 231 610 178 610 C146 610 115 587 97 554 L97 600 L35 600 L35 0 L97 0 L97 490 C97 548 135 602 176 602 C199 602 220 548 220 491 L220 0 L281 0 L281 0 Z " />
<glyph glyph-name="o" unicode="o" horiz-adv-x="316" d="M221 90 C221 43 190 -2 158 -2 C126 -2 96 43 96 90 L96 510 C96 557 126 602 158 602 C190 602 221 557 221 510 L221 90 L221 90 Z M281 101 L281 499 C281 556 221 610 158 610 C95 610 35 556 35 499 L35 101 C35 44 95 -10 158 -10 C221 -10 281 44 281 101 L281 101 Z " />
<glyph glyph-name="p" unicode="p" horiz-adv-x="316" d="M96 -90 L96 83 C107 32 145 -10 185 -10 C235 -10 282 41 282 95 L282 506 C282 560 235 610 185 610 C145 610 107 569 96 519 L96 601 L34 601 L34 -89 L96 -90 L96 -90 Z M96 491 C96 549 137 603 181 603 C201 603 219 549 219 492 L219 111 C219 53 201 -1 181 -1 C137 -1 96 54 96 112 L96 491 L96 491 Z " />
<glyph glyph-name="q" unicode="q" horiz-adv-x="317" d="M282 -90 L282 600 L220 600 L220 523 C211 570 172 610 131 610 C81 610 34 557 34 501 C34 396 35 199 35 94 C35 40 82 -10 131 -10 C172 -10 211 34 220 87 L220 -90 L282 -90 L282 -90 Z M220 109 C220 52 178 -2 134 -2 C114 -2 96 52 96 109 L96 504 C96 554 114 602 134 602 C178 602 220 554 220 504 L220 109 L220 109 Z " />
<glyph glyph-name="r" unicode="r" horiz-adv-x="282" d="M210 410 L272 410 L272 506 C272 560 228 610 181 610 C143 610 106 569 95 519 L95 600 L33 600 L33 0 L95 0 L95 490 C95 548 135 602 177 602 C193 602 209 548 209 491 L210 410 L210 410 Z " />
<glyph glyph-name="s" unicode="s" horiz-adv-x="283" d="M19 195 L19 93 C19 84 21 75 24 66 C40 24 89 -10 141 -10 C204 -10 263 53 263 120 C263 167 220 260 165 322 C119 374 83 449 83 494 C83 550 112 602 142 602 C173 602 202 556 202 507 L202 414 L264 414 L264 507 C264 516 262 525 259 534 C243 576 194 610 142 610 C79 610 20 549 20 485 C20 430 63 340 118 278 C166 224 203 147 203 109 C203 52 173 -2 141 -2 C110 -2 81 44 81 93 L81 195 L19 195 L19 195 Z " />
<glyph glyph-name="t" unicode="t" horiz-adv-x="306" d="M296 214 L286 214 L286 99 C286 47 236 -2 184 -2 C158 -2 134 46 134 96 L134 591 L264 591 L264 600 L134 600 L134 710 L115 710 C115 674 94 640 72 640 L72 600 L5 600 L5 591 L72 591 L72 99 C72 43 126 -10 184 -10 C242 -10 296 43 296 99 L296 214 L296 214 Z " />
<glyph glyph-name="u" unicode="u" horiz-adv-x="317" d="M34 597 C34 596 34 595 34 595 L35 94 C35 40 82 -10 131 -10 C172 -10 211 34 220 87 L220 0 L282 0 L282 600 L220 600 L220 109 C220 52 178 -2 134 -2 C114 -2 96 52 96 109 L96 600 L34 600 L34 597 L34 597 Z " />
<glyph glyph-name="v" unicode="v" horiz-adv-x="287" d="M259 595 L177 7 L79 595 C79 595 78 599 78 600 L16 600 C16 598 16 596 17 595 L125 0 L184 0 L269 595 C270 596 270 598 270 600 L260 600 C260 599 259 595 259 595 L259 595 Z " />
<glyph glyph-name="w" unicode="w" horiz-adv-x="443" d="M413 600 L404 600 L369 40 L237 600 L187 600 L198 553 L117 10 L90 600 L28 600 L28 595 L28 595 L68 0 L123 0 L201 535 L328 0 L377 0 L373 17 C386 210 398 404 412 596 L413 600 L413 600 Z " />
<glyph glyph-name="x" unicode="x" horiz-adv-x="282" d="M263 595 L176 311 L78 595 C78 595 76 599 76 600 L10 600 C10 600 11 597 12 596 L114 300 L21 5 C20 4 20 3 20 2 L29 2 C29 2 31 7 30 7 L117 291 L215 7 C215 7 216 3 216 2 L282 2 C282 2 281 5 280 6 L178 302 L179 302 L271 598 C271 599 271 600 271 601 L262 601 C262 601 260 596 261 596 L263 595 L263 595 Z " />
<glyph glyph-name="y" unicode="y" horiz-adv-x="317" d="M34 595 C34 595 34 154 35 152 C35 101 82 53 131 53 C172 53 211 95 220 145 C220 70 220 2 220 -43 C220 -68 190 -92 158 -92 C99 -92 43 -65 43 -37 L43 1 L34 1 L34 -36 C34 -69 94 -100 158 -100 C222 -100 282 -68 282 -34 L282 600 L219 600 C219 559 220 346 220 159 C217 107 177 60 135 60 C115 60 97 111 97 166 L97 599 L35 599 L34 595 L34 595 Z " />
<glyph glyph-name="z" unicode="z" horiz-adv-x="277" d="M12 592 L196 592 L13 8 L12 6 L12 0 L262 0 L262 8 L75 8 L258 592 L261 600 L12 600 L12 592 L12 592 Z " />
<glyph glyph-name="braceleft" unicode="&#x7b;" horiz-adv-x="179" d="M5 307 L43 307 C53 307 62 281 62 253 L62 -33 C62 -58 100 -82 141 -82 L168 -82 L168 -77 L142 -77 C121 -77 102 -59 102 -39 L102 265 C102 288 75 310 46 310 C75 310 103 341 103 373 L103 644 C103 670 122 695 143 695 L169 695 L169 700 L142 700 C101 700 63 676 63 651 L63 361 C63 336 53 313 43 313 L5 313 L5 307 L5 307 Z " />
<glyph glyph-name="bar" unicode="&#x7c;" horiz-adv-x="136" d="M44 -90 L76 -90 L76 700 L44 700 L44 -90 L44 -90 Z " />
<glyph glyph-name="braceright" unicode="&#x7d;" horiz-adv-x="179" d="M169 313 L131 313 C121 313 111 336 111 361 L111 651 C111 676 73 700 32 700 L5 700 L5 695 L31 695 C52 695 71 670 71 644 L71 373 C71 341 99 310 128 310 C99 310 72 288 72 265 L72 -39 C72 -59 53 -77 32 -77 L6 -77 L6 -82 L33 -82 C74 -82 112 -58 112 -33 L112 253 C112 281 121 307 131 307 L169 307 L169 313 L169 313 Z " />
<glyph glyph-name="asciitilde" unicode="&#x7e;" horiz-adv-x="465" d="M136 290 L167 290 C164 304 174 318 186 318 C196 318 213 313 222 309 C241 300 271 290 284 290 C313 290 334 319 329 350 L298 350 C301 336 291 322 279 322 C269 322 252 327 243 331 C224 340 194 350 181 350 C152 350 131 321 136 290 L136 290 Z " />
<glyph glyph-name="exclamdown" unicode="&#xa1;" horiz-adv-x="125" d="M28 600 L28 531 L96 531 L96 600 L28 600 L28 600 Z M29 -100 L95 -100 L95 136 L64 435 L60 435 L29 136 L29 -100 L29 -100 Z " />
<glyph glyph-name="cent" unicode="&#xa2;" horiz-adv-x="315" d="M280 225 L226 225 L226 96 C226 52 202 11 173 0 L173 600 C202 589 226 547 226 503 L226 372 L280 372 L280 503 C280 555 230 603 173 610 L173 646 L143 646 L143 610 C86 603 35 555 35 503 L35 100 C35 48 86 -1 143 -8 L143 -49 L173 -49 L173 -8 C230 0 280 49 280 101 L280 225 L280 225 Z M143 1 C113 12 88 54 88 98 L88 505 C88 549 113 591 143 602 L143 1 L143 1 Z " />
<glyph glyph-name="brokenbar" unicode="&#xa6;" horiz-adv-x="152" d="M60 405 L92 405 L92 700 L60 700 L60 405 L60 405 Z M60 -90 L92 -90 L92 205 L60 205 L60 -90 L60 -90 Z " />
<glyph glyph-name="section" unicode="&#xa7;" horiz-adv-x="235" d="M15 5 L15 4 L14 0 L22 0 C22 0 23 2 23 4 L91 307 L171 4 C171 2 172 0 172 0 L230 0 L229 4 L229 5 L229 5 L146 320 C170 425 194 530 219 635 L219 636 L220 640 L212 640 C212 640 211 638 211 636 L143 333 L63 636 C63 638 62 640 62 640 L4 640 L5 636 L5 635 L5 635 L88 320 C64 215 40 110 15 5 L15 5 Z " />
<glyph glyph-name="ordfeminine" unicode="&#xaa;" horiz-adv-x="294" d="M9 -82 L297 -82 L297 -26 L9 -26 L9 -82 L9 -82 Z M30 398 L113 398 C113 398 114 486 114 517 C114 559 131 599 149 599 C174 599 185 560 185 518 C185 518 186 388 185 388 C185 345 149 320 110 307 C67 293 27 249 27 217 L27 93 C27 40 66 -10 108 -10 C145 -10 180 38 186 94 C186 63 186 32 186 0 L269 0 L269 505 C269 559 219 610 149 610 C88 610 30 559 30 505 L30 398 L30 398 Z M185 363 C185 294 185 207 185 113 L184 113 C184 56 149 2 111 2 C107 2 110 299 111 299 C144 310 175 330 185 364 L185 363 L185 363 Z " />
<glyph glyph-name="guillemotleft" unicode="&#xab;" horiz-adv-x="328" d="M308 535 L299 535 L155 393 L299 251 L308 251 L214 393 L308 535 L308 535 Z M170 535 L161 535 L17 393 L161 251 L170 251 L76 393 L170 535 L170 535 Z " />
<glyph glyph-name="twosuperior" unicode="&#xb2;" horiz-adv-x="162" d="M149 653 C149 683 120 710 89 710 C58 710 28 688 28 664 L28 621 L67 621 L67 665 C67 686 77 705 89 705 C100 705 111 683 111 660 C111 606 99 567 86 547 C56 502 28 453 28 438 L28 400 L153 400 L153 434 L34 434 L34 438 C34 468 149 624 149 653 L149 653 Z " />
<glyph glyph-name="threesuperior" unicode="&#xb3;" horiz-adv-x="164" d="M31 451 L30 451 L31 451 L31 451 Z M30 663 L30 663 L30 663 Z M28 451 C28 420 58 391 90 391 C121 391 151 420 151 451 L151 535 C151 548 131 560 106 564 C131 569 151 584 151 599 L151 664 C151 688 121 711 89 711 C63 711 38 696 30 676 L30 676 L30 675 C29 671 28 667 28 663 L28 649 L68 649 L68 666 C68 686 78 705 89 705 C101 705 111 687 111 668 C111 668 112 633 112 591 C112 578 101 565 89 565 L66 565 L66 560 L89 560 C101 560 112 550 112 538 L112 445 C112 420 101 396 90 396 C79 396 68 420 68 446 L68 463 L28 463 L28 451 L28 451 Z " />
<glyph glyph-name="acute" unicode="&#xb4;" horiz-adv-x="465" d="M230 640 L236 640 L338 700 L272 700 L230 640 L230 640 Z " />
<glyph glyph-name="periodcentered" unicode="&#xb7;" horiz-adv-x="222" d="M74 280 L149 280 L149 355 L74 355 L74 280 L74 280 Z " />
<glyph glyph-name="onesuperior" unicode="&#xb9;" horiz-adv-x="160" d="M119 400 L119 700 L80 700 L80 668 C80 646 54 615 27 615 C49 615 71 634 80 653 L80 401 L119 400 L119 400 Z " />
<glyph glyph-name="ordmasculine" unicode="&#xba;" horiz-adv-x="305" d="M15 -82 L303 -82 L303 -26 L15 -26 L15 -82 L15 -82 Z M198 87 C198 43 177 1 154 1 C131 1 110 43 110 87 L110 513 C110 557 131 599 154 599 C177 599 198 557 198 513 L198 87 L198 87 Z M280 102 L280 498 C280 556 219 610 154 610 C89 610 28 556 28 498 L28 102 C28 44 89 -10 154 -10 C219 -10 280 44 280 102 L280 102 Z " />
<glyph glyph-name="guillemotright" unicode="&#xbb;" horiz-adv-x="343" d="M177 535 L276 393 L177 251 L186 251 L335 393 L186 535 L177 535 L177 535 Z M19 535 L118 393 L19 251 L28 251 L177 393 L28 535 L19 535 L19 535 Z " />
<glyph glyph-name="onequarter" unicode="&#xbc;" horiz-adv-x="412" d="M444 109 L394 109 L394 146 C394 179 388 271 386 271 C386 271 349 178 349 146 L349 109 L276 109 C347 280 413 364 413 364 L375 364 C375 364 323 240 269 109 L269 102 L349 102 L349 0 L394 0 L394 102 L444 102 L444 109 L444 109 Z M10 587 C39 587 65 610 75 634 L75 327 L121 327 L121 691 L74 691 L74 652 C74 625 43 588 10 588 L10 587 L10 587 Z M10 1 L15 1 L402 701 L398 701 L10 1 L10 1 Z " />
<glyph glyph-name="onehalf" unicode="&#xbd;" horiz-adv-x="412" d="M269 263 L315 263 L315 316 C315 340 327 363 341 363 C354 363 367 337 367 309 C367 245 353 199 338 175 C302 122 269 63 269 45 L269 0 L417 0 L417 40 L276 40 C276 63 307 114 344 171 C379 226 413 284 413 302 C413 336 378 369 341 369 C304 369 269 343 269 314 L269 263 L269 263 Z M10 587 C39 587 65 610 75 634 L75 327 L121 327 L121 691 L74 691 L74 652 C74 625 43 588 10 588 L10 587 L10 587 Z M10 1 L15 1 L402 701 L398 701 L10 1 L10 1 Z " />
<glyph glyph-name="threequarters" unicode="&#xbe;" horiz-adv-x="412" d="M444 109 L394 109 L394 146 C394 179 388 271 386 271 C386 271 349 178 349 146 L349 109 L276 109 C347 280 413 364 413 364 L375 364 C375 364 323 240 269 109 L269 102 L349 102 L349 0 L394 0 L394 102 L444 102 L444 109 L444 109 Z M10 0 L15 0 L402 700 L398 700 L10 0 L10 0 Z M13 392 L12 392 L13 392 L13 392 Z M12 640 L12 640 L12 640 Z M10 392 C10 355 45 321 82 321 C119 321 154 355 154 392 L154 490 C154 505 131 519 102 524 C131 530 154 546 154 564 L154 640 C154 668 119 695 81 695 C51 695 22 677 13 654 L12 654 L12 652 C11 648 10 644 10 640 L10 624 L56 624 L56 644 C56 667 68 689 81 689 C95 689 107 668 107 645 C107 645 108 604 108 556 C108 540 95 526 81 526 L54 526 L54 519 L81 519 C95 519 108 507 108 494 L108 385 C108 355 95 327 82 327 C69 327 56 356 56 386 L56 406 L10 406 L10 392 L10 392 Z " />
<glyph glyph-name="questiondown" unicode="&#xbf;" horiz-adv-x="343" d="M213 600 L145 600 L145 531 L213 531 L213 600 L213 600 Z M302 86 L241 86 C241 86 238 13 238 -12 C238 -58 209 -101 179 -101 C148 -101 119 -48 119 9 C119 84 135 174 188 238 C188 238 178 322 178 430 L173 430 C173 327 180 242 180 242 C84 127 55 55 55 16 C55 -49 115 -110 179 -110 C243 -110 303 -62 303 -11 C303 14 302 86 302 86 L302 86 Z " />
<glyph glyph-name="Agrave" unicode="&#xc0;" horiz-adv-x="313" d="M160 740 L167 740 L125 800 L59 800 L160 740 L160 740 Z M38 0 C38 1 39 5 39 5 L79 237 L204 237 L231 5 C230 5 230 5 230 4 L231 0 L297 0 C297 2 297 4 296 5 L204 700 L149 700 L150 693 L29 5 C28 4 28 2 28 0 L38 0 L38 0 Z M202 246 L80 246 L153 666 L202 246 L202 246 Z " />
<glyph glyph-name="Aacute" unicode="&#xc1;" horiz-adv-x="313" d="M160 740 L167 740 L268 800 L202 800 L160 740 L160 740 Z M38 0 C38 1 39 5 39 5 L79 237 L204 237 L231 5 C230 5 230 5 230 4 L231 0 L297 0 C297 2 297 4 296 5 L204 700 L149 700 L150 693 L29 5 C28 4 28 2 28 0 L38 0 L38 0 Z M202 246 L80 246 L153 666 L202 246 L202 246 Z " />
<glyph glyph-name="Acircumflex" unicode="&#xc2;" horiz-adv-x="313" d="M131 800 L81 740 L87 740 L164 782 L241 740 L247 740 L197 800 L131 800 L131 800 Z M39 0 C39 1 40 5 40 5 L80 237 L205 237 L232 5 C231 5 231 5 231 4 L232 0 L298 0 C298 2 298 4 297 5 L205 700 L150 700 L151 693 L30 5 C29 4 29 2 29 0 L39 0 L39 0 Z M203 246 L81 246 L154 666 L203 246 L203 246 Z " />
<glyph glyph-name="Atilde" unicode="&#xc3;" horiz-adv-x="313" d="M67 729 L98 729 C95 743 105 757 117 757 C127 757 144 752 153 748 C172 739 202 729 215 729 C244 729 265 758 260 789 L229 789 C232 775 222 761 210 761 C200 761 183 766 174 770 C155 779 125 789 112 789 C83 789 62 760 67 729 L67 729 Z M38 0 C38 1 39 5 39 5 L79 237 L204 237 L231 5 C230 5 230 5 230 4 L231 0 L297 0 C297 2 297 4 296 5 L204 700 L149 700 L150 693 L29 5 C28 4 28 2 28 0 L38 0 L38 0 Z M202 246 L80 246 L153 666 L202 246 L202 246 Z " />
<glyph glyph-name="Adieresis" unicode="&#xc4;" horiz-adv-x="313" d="M178 740 L236 740 L236 797 L178 797 L178 740 L178 740 Z M91 740 L149 740 L149 797 L91 797 L91 740 L91 740 Z M38 0 C38 1 39 5 39 5 L79 237 L204 237 L231 5 C230 5 230 5 230 4 L231 0 L297 0 C297 2 297 4 296 5 L204 700 L149 700 L150 693 L29 5 C28 4 28 2 28 0 L38 0 L38 0 Z M202 246 L80 246 L153 666 L202 246 L202 246 Z " />
<glyph glyph-name="Aring" unicode="&#xc5;" horiz-adv-x="313" d="M164 807 C186 807 187 744 165 744 C142 744 142 807 165 807 L164 807 L164 807 Z M118 775 C118 758 141 741 165 741 C189 741 211 758 211 775 C211 793 189 810 165 810 C141 810 118 793 118 775 L118 775 Z M39 0 C39 1 40 5 40 5 L80 237 L205 237 L232 5 C231 5 231 5 231 4 L232 0 L298 0 C298 2 298 4 297 5 L205 700 L150 700 L151 693 L30 5 C29 4 29 2 29 0 L39 0 L39 0 Z M203 246 L81 246 L154 666 L203 246 L203 246 Z " />
<glyph glyph-name="Ccedilla" unicode="&#xc7;" horiz-adv-x="295" d="M270 602 L270 603 L275 602 C275 612 273 622 270 631 C255 675 208 710 159 710 C98 710 41 658 41 602 L41 98 C41 44 95 -7 154 -10 L130 -49 L134 -49 C137 -46 159 -44 167 -44 C178 -44 182 -63 182 -79 C182 -83 171 -87 159 -87 C145 -87 131 -78 131 -68 L126 -68 C126 -89 142 -109 158 -109 C186 -109 212 -94 212 -79 L212 -72 C212 -45 167 -35 136 -45 L157 -10 C218 -10 275 41 275 98 L275 129 L265 129 L265 97 C265 47 213 -1 158 -1 C131 -1 105 42 105 87 C105 87 104 339 104 613 C104 658 130 701 158 701 C213 701 265 653 265 603 L265 570 L275 570 L275 602 L270 602 L270 602 Z " />
<glyph glyph-name="Egrave" unicode="&#xc8;" horiz-adv-x="275" d="M144 740 L151 740 L109 800 L43 800 L144 740 L144 740 Z M255 9 L105 9 L105 360 L211 360 L211 370 L105 370 L105 691 L250 691 L250 700 L40 700 L40 0 L255 0 L255 9 L255 9 Z " />
<glyph glyph-name="Eacute" unicode="&#xc9;" horiz-adv-x="275" d="M144 740 L151 740 L252 800 L186 800 L144 740 L144 740 Z M255 9 L105 9 L105 360 L211 360 L211 370 L105 370 L105 691 L250 691 L250 700 L40 700 L40 0 L255 0 L255 9 L255 9 Z " />
<glyph glyph-name="Ecircumflex" unicode="&#xca;" horiz-adv-x="275" d="M115 800 L65 740 L71 740 L148 782 L225 740 L231 740 L181 800 L115 800 L115 800 Z M256 9 L106 9 L106 360 L212 360 L212 370 L106 370 L106 691 L251 691 L251 700 L41 700 L41 0 L256 0 L256 9 L256 9 Z " />
<glyph glyph-name="Edieresis" unicode="&#xcb;" horiz-adv-x="275" d="M162 740 L220 740 L220 797 L162 797 L162 740 L162 740 Z M75 740 L133 740 L133 797 L75 797 L75 740 L75 740 Z M255 9 L105 9 L105 360 L211 360 L211 370 L105 370 L105 691 L250 691 L250 700 L40 700 L40 0 L255 0 L255 9 L255 9 Z " />
<glyph glyph-name="Igrave" unicode="&#xcc;" horiz-adv-x="145" d="M69 740 L75 740 L33 800 L-33 800 L69 740 L69 740 Z M105 0 L105 700 L39 700 L39 0 L105 0 L105 0 Z " />
<glyph glyph-name="Iacute" unicode="&#xcd;" horiz-adv-x="145" d="M69 740 L75 740 L177 800 L111 800 L69 740 L69 740 Z M105 0 L105 700 L39 700 L39 0 L105 0 L105 0 Z " />
<glyph glyph-name="Icircumflex" unicode="&#xce;" horiz-adv-x="145" d="M39 800 L-10 740 L-4 740 L72 782 L148 740 L154 740 L105 800 L39 800 L39 800 Z M105 0 L105 700 L39 700 L39 0 L105 0 L105 0 Z " />
<glyph glyph-name="Idieresis" unicode="&#xcf;" horiz-adv-x="145" d="M87 740 L144 740 L144 797 L87 797 L87 740 L87 740 Z M0 740 L57 740 L57 797 L0 797 L0 740 L0 740 Z M105 0 L105 700 L39 700 L39 0 L105 0 L105 0 Z " />
<glyph glyph-name="Eth" unicode="&#xd0;" horiz-adv-x="338" d="M-5 350 L40 350 L40 0 L164 0 C233 0 298 51 298 105 L298 596 C298 650 233 700 164 700 L40 700 L40 388 L-5 388 L-5 350 L-5 350 Z M105 9 L105 350 L208 350 L208 388 L105 388 L105 691 L164 691 C199 691 232 643 232 593 L232 105 C232 56 199 9 164 9 L105 9 L105 9 Z " />
<glyph glyph-name="Ntilde" unicode="&#xd1;" horiz-adv-x="339" d="M80 729 L111 729 C108 743 118 757 130 757 C140 757 157 752 166 748 C185 739 215 729 228 729 C257 729 278 758 273 789 L242 789 C245 775 235 761 223 761 C213 761 196 766 187 770 C168 779 138 789 125 789 C96 789 75 760 80 729 L80 729 Z M291 700 L291 90 L94 700 L37 700 L54 648 L54 0 L63 0 L63 620 L264 0 L320 0 L299 65 L299 700 L291 700 L291 700 Z " />
<glyph glyph-name="Ograve" unicode="&#xd2;" horiz-adv-x="327" d="M160 740 L166 740 L124 800 L58 800 L160 740 L160 740 Z M221 86 C221 41 193 -1 163 -1 C133 -1 104 41 104 86 L104 614 C104 659 133 701 163 701 C193 701 221 659 221 614 L221 86 L221 86 Z M287 98 L287 602 C287 658 227 710 163 710 C99 710 39 658 39 602 L39 98 C39 42 99 -10 163 -10 C227 -10 287 42 287 98 L287 98 Z " />
<glyph glyph-name="Oacute" unicode="&#xd3;" horiz-adv-x="327" d="M160 740 L166 740 L268 800 L202 800 L160 740 L160 740 Z M221 86 C221 41 193 -1 163 -1 C133 -1 104 41 104 86 L104 614 C104 659 133 701 163 701 C193 701 221 659 221 614 L221 86 L221 86 Z M287 98 L287 602 C287 658 227 710 163 710 C99 710 39 658 39 602 L39 98 C39 42 99 -10 163 -10 C227 -10 287 42 287 98 L287 98 Z " />
<glyph glyph-name="Ocircumflex" unicode="&#xd4;" horiz-adv-x="327" d="M221 86 C221 41 193 -1 163 -1 C133 -1 104 41 104 86 L104 614 C104 659 133 701 163 701 C193 701 221 659 221 614 L221 86 L221 86 Z M287 98 L287 602 C287 658 227 710 163 710 C99 710 39 658 39 602 L39 98 C39 42 99 -10 163 -10 C227 -10 287 42 287 98 L287 98 Z M130 800 L81 740 L87 740 L163 782 L239 740 L245 740 L196 800 L130 800 L130 800 Z " />
<glyph glyph-name="Otilde" unicode="&#xd5;" horiz-adv-x="327" d="M67 729 L98 729 C95 743 105 757 117 757 C127 757 144 752 153 748 C172 739 201 729 214 729 C243 729 264 758 259 789 L228 789 C231 775 221 761 209 761 C199 761 182 766 173 770 C154 779 125 789 112 789 C83 789 62 760 67 729 L67 729 Z M221 86 C221 41 193 -1 163 -1 C133 -1 104 41 104 86 L104 614 C104 659 133 701 163 701 C193 701 221 659 221 614 L221 86 L221 86 Z M287 98 L287 602 C287 658 227 710 163 710 C99 710 39 658 39 602 L39 98 C39 42 99 -10 163 -10 C227 -10 287 42 287 98 L287 98 Z " />
<glyph glyph-name="Odieresis" unicode="&#xd6;" horiz-adv-x="327" d="M178 740 L235 740 L235 797 L178 797 L178 740 L178 740 Z M91 740 L148 740 L148 797 L91 797 L91 740 L91 740 Z M221 86 C221 41 193 -1 163 -1 C133 -1 104 41 104 86 L104 614 C104 659 133 701 163 701 C193 701 221 659 221 614 L221 86 L221 86 Z M287 98 L287 602 C287 658 227 710 163 710 C99 710 39 658 39 602 L39 98 C39 42 99 -10 163 -10 C227 -10 287 42 287 98 L287 98 Z " />
<glyph glyph-name="Oslash" unicode="&#xd8;" horiz-adv-x="327" d="M287 98 L287 602 C287 616 284 629 278 641 L302 710 L274 710 L259 668 C235 693 200 710 163 710 C99 710 39 658 39 602 L39 98 C39 84 42 71 48 59 L24 -10 L52 -10 L67 32 C91 7 126 -10 163 -10 C227 -10 287 42 287 98 L287 98 Z M104 219 L104 614 C104 659 133 701 163 701 C193 701 221 659 221 614 L221 559 L104 219 L104 219 Z M104 138 L221 478 L221 86 C221 41 193 -1 163 -1 C133 -1 104 41 104 86 L104 138 L104 138 Z " />
<glyph glyph-name="Ugrave" unicode="&#xd9;" horiz-adv-x="313" d="M153 740 L159 740 L117 800 L51 800 L153 740 L153 740 Z M263 700 L263 94 C263 45 211 -1 156 -1 C129 -1 104 41 104 86 L104 700 L39 700 L39 98 C39 42 96 -10 156 -10 C216 -10 273 41 273 95 L273 700 L263 700 L263 700 Z " />
<glyph glyph-name="Uacute" unicode="&#xda;" horiz-adv-x="313" d="M153 740 L159 740 L261 800 L195 800 L153 740 L153 740 Z M263 700 L263 94 C263 45 211 -1 156 -1 C129 -1 104 41 104 86 L104 700 L39 700 L39 98 C39 42 96 -10 156 -10 C216 -10 273 41 273 95 L273 700 L263 700 L263 700 Z " />
<glyph glyph-name="Ucircumflex" unicode="&#xdb;" horiz-adv-x="313" d="M123 800 L74 740 L80 740 L156 782 L232 740 L238 740 L189 800 L123 800 L123 800 Z M263 700 L263 94 C263 45 211 -1 156 -1 C129 -1 104 41 104 86 L104 700 L39 700 L39 98 C39 42 96 -10 156 -10 C216 -10 273 41 273 95 L273 700 L263 700 L263 700 Z " />
<glyph glyph-name="Udieresis" unicode="&#xdc;" horiz-adv-x="313" d="M171 740 L228 740 L228 797 L171 797 L171 740 L171 740 Z M84 740 L141 740 L141 797 L84 797 L84 740 L84 740 Z M263 700 L263 94 C263 45 211 -1 156 -1 C129 -1 104 41 104 86 L104 700 L39 700 L39 98 C39 42 96 -10 156 -10 C216 -10 273 41 273 95 L273 700 L263 700 L263 700 Z " />
<glyph glyph-name="Yacute" unicode="&#xdd;" horiz-adv-x="336" d="M164 740 L170 740 L272 800 L206 800 L164 740 L164 740 Z M34 695 L142 296 L142 0 L208 0 L208 296 C239 429 269 562 300 695 L300 696 L301 700 L291 700 C291 700 290 697 290 695 L201 295 L191 295 L102 695 C102 697 101 699 101 699 L33 699 L34 694 L34 695 L34 695 Z " />
<glyph glyph-name="agrave" unicode="&#xe0;" horiz-adv-x="302" d="M145 640 L151 640 L109 700 L43 700 L145 640 L145 640 Z M34 398 L95 398 C95 398 96 485 96 515 C96 560 122 602 149 602 C185 602 205 560 205 515 L205 388 C205 344 163 319 118 306 C72 293 29 250 29 217 C29 156 30 94 30 94 C30 40 73 -10 119 -10 C158 -10 196 34 205 86 L205 0 L267 0 L267 506 C267 560 218 610 149 610 C89 610 33 560 33 506 C33 478 34 398 34 398 L34 398 Z M205 367 L205 109 C205 52 165 -2 123 -2 C107 -2 91 52 91 109 L91 217 C91 255 105 295 119 299 C158 310 195 331 206 367 L205 367 L205 367 Z " />
<glyph glyph-name="aacute" unicode="&#xe1;" horiz-adv-x="302" d="M145 640 L151 640 L253 700 L187 700 L145 640 L145 640 Z M34 398 L95 398 C95 398 96 485 96 515 C96 560 122 602 149 602 C185 602 205 560 205 515 L205 388 C205 344 163 319 118 306 C72 293 29 250 29 217 C29 156 30 94 30 94 C30 40 73 -10 119 -10 C158 -10 196 34 205 86 L205 0 L267 0 L267 506 C267 560 218 610 149 610 C89 610 33 560 33 506 C33 478 34 398 34 398 L34 398 Z M205 367 L205 109 C205 52 165 -2 123 -2 C107 -2 91 52 91 109 L91 217 C91 255 105 295 119 299 C158 310 195 331 206 367 L205 367 L205 367 Z " />
<glyph glyph-name="acircumflex" unicode="&#xe2;" horiz-adv-x="302" d="M34 398 L95 398 C95 398 96 485 96 515 C96 560 122 602 149 602 C185 602 205 560 205 515 L205 388 C205 344 163 319 118 306 C72 293 29 250 29 217 C29 156 30 94 30 94 C30 40 73 -10 119 -10 C158 -10 196 34 205 86 L205 0 L267 0 L267 506 C267 560 218 610 149 610 C89 610 33 560 33 506 C33 478 34 398 34 398 L34 398 Z M115 700 L66 640 L72 640 L148 682 L224 640 L230 640 L181 700 L115 700 L115 700 Z M205 367 L205 109 C205 52 165 -2 123 -2 C107 -2 91 52 91 109 L91 217 C91 255 105 295 119 299 C158 310 195 331 206 367 L205 367 L205 367 Z " />
<glyph glyph-name="atilde" unicode="&#xe3;" horiz-adv-x="302" d="M52 633 L83 633 C80 647 90 661 102 661 C112 661 129 656 138 652 C157 643 186 633 199 633 C228 633 249 662 244 693 L213 693 C216 679 206 665 194 665 C184 665 167 670 158 674 C139 683 110 693 97 693 C68 693 47 664 52 633 L52 633 Z M34 398 L95 398 C95 398 96 485 96 515 C96 560 122 602 149 602 C185 602 205 560 205 515 L205 388 C205 344 163 319 118 306 C72 293 29 250 29 217 C29 156 30 94 30 94 C30 40 73 -10 119 -10 C158 -10 196 34 205 86 L205 0 L267 0 L267 506 C267 560 218 610 149 610 C89 610 33 560 33 506 C33 478 34 398 34 398 L34 398 Z M205 367 L205 109 C205 52 165 -2 123 -2 C107 -2 91 52 91 109 L91 217 C91 255 105 295 119 299 C158 310 195 331 206 367 L205 367 L205 367 Z " />
<glyph glyph-name="adieresis" unicode="&#xe4;" horiz-adv-x="302" d="M163 640 L220 640 L220 697 L163 697 L163 640 L163 640 Z M76 640 L133 640 L133 697 L76 697 L76 640 L76 640 Z M34 398 L95 398 C95 398 96 485 96 515 C96 560 122 602 149 602 C185 602 205 560 205 515 L205 388 C205 344 163 319 118 306 C72 293 29 250 29 217 C29 156 30 94 30 94 C30 40 73 -10 119 -10 C158 -10 196 34 205 86 L205 0 L267 0 L267 506 C267 560 218 610 149 610 C89 610 33 560 33 506 C33 478 34 398 34 398 L34 398 Z M205 367 L205 109 C205 52 165 -2 123 -2 C107 -2 91 52 91 109 L91 217 C91 255 105 295 119 299 C158 310 195 331 206 367 L205 367 L205 367 Z " />
<glyph glyph-name="aring" unicode="&#xe5;" horiz-adv-x="302" d="M148 706 C171 706 171 643 148 643 C125 643 125 706 148 706 L148 706 Z M102 674 C102 657 124 640 148 640 C172 640 194 657 194 674 C194 692 172 709 148 709 C124 709 102 692 102 674 L102 674 Z M34 398 L95 398 C95 398 96 485 96 515 C96 560 122 602 149 602 C185 602 205 560 205 515 L205 388 C205 344 163 319 118 306 C72 293 29 250 29 217 C29 156 30 94 30 94 C30 40 73 -10 119 -10 C158 -10 196 34 205 86 L205 0 L267 0 L267 506 C267 560 218 610 149 610 C89 610 33 560 33 506 C33 478 34 398 34 398 L34 398 Z M205 367 L205 109 C205 52 165 -2 123 -2 C107 -2 91 52 91 109 L91 217 C91 255 105 295 119 299 C158 310 195 331 206 367 L205 367 L205 367 Z " />
<glyph glyph-name="ccedilla" unicode="&#xe7;" horiz-adv-x="303" d="M268 224 L258 224 L258 99 C258 47 206 -2 151 -2 C123 -2 96 46 96 96 L96 504 C96 554 123 602 151 602 C206 602 258 553 258 501 L258 370 L268 370 L268 501 C268 511 266 521 263 530 C248 574 201 610 152 610 C92 610 35 557 35 501 L35 99 C35 45 89 -7 147 -10 L123 -49 L127 -49 C130 -46 152 -44 160 -44 C171 -44 175 -63 175 -79 C175 -83 164 -87 152 -87 C138 -87 124 -78 124 -68 L119 -68 C119 -89 135 -109 151 -109 C179 -109 205 -94 205 -79 L205 -72 C205 -45 160 -35 129 -45 L150 -10 C211 -10 268 42 268 99 L268 224 L268 224 Z " />
<glyph glyph-name="egrave" unicode="&#xe8;" horiz-adv-x="303" d="M148 640 L154 640 L112 700 L46 700 L148 640 L148 640 Z M268 224 L258 224 L258 99 C258 47 206 -2 151 -2 C123 -2 96 46 96 96 L96 312 L281 312 L281 501 C281 557 218 610 151 610 C91 610 34 557 34 501 L34 99 C34 43 91 -10 151 -10 C211 -10 268 43 268 99 L268 224 L268 224 Z M219 320 L96 320 L96 504 C96 554 123 602 151 602 C186 602 219 553 219 501 L219 320 L219 320 Z " />
<glyph glyph-name="eacute" unicode="&#xe9;" horiz-adv-x="303" d="M148 640 L154 640 L256 700 L190 700 L148 640 L148 640 Z M268 224 L258 224 L258 99 C258 47 206 -2 151 -2 C123 -2 96 46 96 96 L96 312 L281 312 L281 501 C281 557 218 610 151 610 C91 610 34 557 34 501 L34 99 C34 43 91 -10 151 -10 C211 -10 268 43 268 99 L268 224 L268 224 Z M219 320 L96 320 L96 504 C96 554 123 602 151 602 C186 602 219 553 219 501 L219 320 L219 320 Z " />
<glyph glyph-name="ecircumflex" unicode="&#xea;" horiz-adv-x="303" d="M268 224 L258 224 L258 99 C258 47 206 -2 151 -2 C123 -2 96 46 96 96 L96 312 L281 312 L281 501 C281 557 218 610 151 610 C91 610 34 557 34 501 L34 99 C34 43 91 -10 151 -10 C211 -10 268 43 268 99 L268 224 L268 224 Z M118 700 L69 640 L75 640 L151 682 L227 640 L233 640 L184 700 L118 700 L118 700 Z M219 320 L96 320 L96 504 C96 554 123 602 151 602 C186 602 219 553 219 501 L219 320 L219 320 Z " />
<glyph glyph-name="edieresis" unicode="&#xeb;" horiz-adv-x="303" d="M166 640 L223 640 L223 697 L166 697 L166 640 L166 640 Z M79 640 L136 640 L136 697 L79 697 L79 640 L79 640 Z M268 224 L258 224 L258 99 C258 47 206 -2 151 -2 C123 -2 96 46 96 96 L96 312 L281 312 L281 501 C281 557 218 610 151 610 C91 610 34 557 34 501 L34 99 C34 43 91 -10 151 -10 C211 -10 268 43 268 99 L268 224 L268 224 Z M219 320 L96 320 L96 504 C96 554 123 602 151 602 C186 602 219 553 219 501 L219 320 L219 320 Z " />
<glyph glyph-name="igrave" unicode="&#xec;" horiz-adv-x="132" d="M63 640 L69 640 L27 700 L-39 700 L63 640 L63 640 Z M97 0 L97 600 L35 600 L35 0 L97 0 L97 0 Z " />
<glyph glyph-name="iacute" unicode="&#xed;" horiz-adv-x="132" d="M63 640 L69 640 L171 700 L105 700 L63 640 L63 640 Z M97 0 L97 600 L35 600 L35 0 L97 0 L97 0 Z " />
<glyph glyph-name="icircumflex" unicode="&#xee;" horiz-adv-x="132" d="M33 700 L-16 640 L-10 640 L66 682 L142 640 L148 640 L99 700 L33 700 L33 700 Z M97 0 L97 600 L35 600 L35 0 L97 0 L97 0 Z " />
<glyph glyph-name="idieresis" unicode="&#xef;" horiz-adv-x="132" d="M81 640 L138 640 L138 697 L81 697 L81 640 L81 640 Z M-6 640 L51 640 L51 697 L-6 697 L-6 640 L-6 640 Z M97 0 L97 600 L35 600 L35 0 L97 0 L97 0 Z " />
<glyph glyph-name="ntilde" unicode="&#xf1;" horiz-adv-x="316" d="M61 634 L92 634 C89 648 99 662 111 662 C121 662 138 657 147 653 C166 644 196 634 209 634 C238 634 259 663 254 694 L223 694 C226 680 216 666 204 666 C194 666 177 671 168 675 C149 684 119 694 106 694 C77 694 56 665 61 634 L61 634 Z M281 0 L281 506 C281 560 231 610 178 610 C146 610 115 587 97 554 L97 600 L35 600 L35 0 L97 0 L97 490 C97 548 135 602 176 602 C199 602 220 548 220 491 L220 0 L281 0 L281 0 Z " />
<glyph glyph-name="ograve" unicode="&#xf2;" horiz-adv-x="316" d="M155 640 L161 640 L119 700 L53 700 L155 640 L155 640 Z M221 90 C221 43 190 -2 158 -2 C126 -2 96 43 96 90 L96 510 C96 557 126 602 158 602 C190 602 221 557 221 510 L221 90 L221 90 Z M281 101 L281 499 C281 556 221 610 158 610 C95 610 35 556 35 499 L35 101 C35 44 95 -10 158 -10 C221 -10 281 44 281 101 L281 101 Z " />
<glyph glyph-name="oacute" unicode="&#xf3;" horiz-adv-x="316" d="M155 640 L161 640 L263 700 L197 700 L155 640 L155 640 Z M221 90 C221 43 190 -2 158 -2 C126 -2 96 43 96 90 L96 510 C96 557 126 602 158 602 C190 602 221 557 221 510 L221 90 L221 90 Z M281 101 L281 499 C281 556 221 610 158 610 C95 610 35 556 35 499 L35 101 C35 44 95 -10 158 -10 C221 -10 281 44 281 101 L281 101 Z " />
<glyph glyph-name="ocircumflex" unicode="&#xf4;" horiz-adv-x="316" d="M221 90 C221 43 190 -2 158 -2 C126 -2 96 43 96 90 L96 510 C96 557 126 602 158 602 C190 602 221 557 221 510 L221 90 L221 90 Z M281 101 L281 499 C281 556 221 610 158 610 C95 610 35 556 35 499 L35 101 C35 44 95 -10 158 -10 C221 -10 281 44 281 101 L281 101 Z M125 700 L76 640 L82 640 L158 682 L234 640 L240 640 L191 700 L125 700 L125 700 Z " />
<glyph glyph-name="otilde" unicode="&#xf5;" horiz-adv-x="316" d="M62 634 L93 634 C90 648 100 662 112 662 C122 662 139 657 148 653 C167 644 196 634 209 634 C238 634 259 663 254 694 L223 694 C226 680 216 666 204 666 C194 666 177 671 168 675 C149 684 120 694 107 694 C78 694 57 665 62 634 L62 634 Z M221 90 C221 43 190 -2 158 -2 C126 -2 96 43 96 90 L96 510 C96 557 126 602 158 602 C190 602 221 557 221 510 L221 90 L221 90 Z M281 101 L281 499 C281 556 221 610 158 610 C95 610 35 556 35 499 L35 101 C35 44 95 -10 158 -10 C221 -10 281 44 281 101 L281 101 Z " />
<glyph glyph-name="odieresis" unicode="&#xf6;" horiz-adv-x="316" d="M173 640 L230 640 L230 697 L173 697 L173 640 L173 640 Z M86 640 L143 640 L143 697 L86 697 L86 640 L86 640 Z M221 90 C221 43 190 -2 158 -2 C126 -2 96 43 96 90 L96 510 C96 557 126 602 158 602 C190 602 221 557 221 510 L221 90 L221 90 Z M281 101 L281 499 C281 556 221 610 158 610 C95 610 35 556 35 499 L35 101 C35 44 95 -10 158 -10 C221 -10 281 44 281 101 L281 101 Z " />
<glyph glyph-name="oslash" unicode="&#xf8;" horiz-adv-x="316" d="M281 101 L281 499 C281 515 277 530 269 544 L295 610 L267 610 L251 569 C228 594 194 611 159 611 C96 611 36 557 36 500 L36 102 C36 86 40 71 48 57 L22 -9 L50 -9 L66 32 C89 7 123 -10 158 -10 C221 -10 281 44 281 101 L281 101 Z M96 179 L96 510 C96 557 126 602 158 602 C190 602 221 557 221 510 L221 494 L96 179 L96 179 Z M96 108 L221 423 L221 90 C221 43 190 -2 158 -2 C126 -2 96 43 96 90 L96 108 L96 108 Z " />
<glyph glyph-name="ugrave" unicode="&#xf9;" horiz-adv-x="317" d="M155 640 L161 640 L119 700 L53 700 L155 640 L155 640 Z M34 597 C34 596 34 595 34 595 L35 94 C35 40 82 -10 131 -10 C172 -10 211 34 220 87 L220 0 L282 0 L282 600 L220 600 L220 109 C220 52 178 -2 134 -2 C114 -2 96 52 96 109 L96 600 L34 600 L34 597 L34 597 Z " />
<glyph glyph-name="uacute" unicode="&#xfa;" horiz-adv-x="317" d="M155 640 L161 640 L263 700 L197 700 L155 640 L155 640 Z M34 597 C34 596 34 595 34 595 L35 94 C35 40 82 -10 131 -10 C172 -10 211 34 220 87 L220 0 L282 0 L282 600 L220 600 L220 109 C220 52 178 -2 134 -2 C114 -2 96 52 96 109 L96 600 L34 600 L34 597 L34 597 Z " />
<glyph glyph-name="ucircumflex" unicode="&#xfb;" horiz-adv-x="317" d="M34 597 C34 596 34 595 34 595 L35 94 C35 40 82 -10 131 -10 C172 -10 211 34 220 87 L220 0 L282 0 L282 600 L220 600 L220 109 C220 52 178 -2 134 -2 C114 -2 96 52 96 109 L96 600 L34 600 L34 597 L34 597 Z M125 700 L76 640 L82 640 L158 682 L234 640 L240 640 L191 700 L125 700 L125 700 Z " />
<glyph glyph-name="udieresis" unicode="&#xfc;" horiz-adv-x="317" d="M173 640 L230 640 L230 697 L173 697 L173 640 L173 640 Z M86 640 L143 640 L143 697 L86 697 L86 640 L86 640 Z M34 597 C34 596 34 595 34 595 L35 94 C35 40 82 -10 131 -10 C172 -10 211 34 220 87 L220 0 L282 0 L282 600 L220 600 L220 109 C220 52 178 -2 134 -2 C114 -2 96 52 96 109 L96 600 L34 600 L34 597 L34 597 Z " />
<glyph glyph-name="yacute" unicode="&#xfd;" horiz-adv-x="317" d="M155 640 L162 640 L263 700 L197 700 L155 640 L155 640 Z M34 595 C34 595 34 154 35 152 C35 101 82 53 131 53 C172 53 211 95 220 145 C220 70 220 2 220 -43 C220 -68 190 -92 158 -92 C99 -92 43 -65 43 -37 L43 1 L34 1 L34 -36 C34 -69 94 -100 158 -100 C222 -100 282 -68 282 -34 L282 600 L219 600 C219 559 220 346 220 159 C217 107 177 60 135 60 C115 60 97 111 97 166 L97 599 L35 599 L34 595 L34 595 Z " />
<glyph glyph-name="ydieresis" unicode="&#xff;" horiz-adv-x="317" d="M173 640 L231 640 L231 697 L173 697 L173 640 L173 640 Z M86 640 L144 640 L144 697 L86 697 L86 640 L86 640 Z M34 595 C34 595 34 154 35 152 C35 101 82 53 131 53 C172 53 211 95 220 145 C220 70 220 2 220 -43 C220 -68 190 -92 158 -92 C99 -92 43 -65 43 -37 L43 1 L34 1 L34 -36 C34 -69 94 -100 158 -100 C222 -100 282 -68 282 -34 L282 600 L219 600 C219 559 220 346 220 159 C217 107 177 60 135 60 C115 60 97 111 97 166 L97 599 L35 599 L34 595 L34 595 Z " />
<glyph glyph-name="Amacron" unicode="&#x100;" horiz-adv-x="313" d="M48 743 L279 743 L279 784 L48 784 L48 743 L48 743 Z M38 0 C38 1 39 5 39 5 L79 237 L204 237 L231 5 C230 5 230 5 230 4 L231 0 L297 0 C297 2 297 4 296 5 L204 700 L149 700 L150 693 L29 5 C28 4 28 2 28 0 L38 0 L38 0 Z M202 246 L80 246 L153 666 L202 246 L202 246 Z " />
<glyph glyph-name="amacron" unicode="&#x101;" horiz-adv-x="302" d="M33 643 L263 643 L263 684 L33 684 L33 643 L33 643 Z M34 398 L95 398 C95 398 96 485 96 515 C96 560 122 602 149 602 C185 602 205 560 205 515 L205 388 C205 344 163 319 118 306 C72 293 29 250 29 217 C29 156 30 94 30 94 C30 40 73 -10 119 -10 C158 -10 196 34 205 86 L205 0 L267 0 L267 506 C267 560 218 610 149 610 C89 610 33 560 33 506 C33 478 34 398 34 398 L34 398 Z M205 367 L205 109 C205 52 165 -2 123 -2 C107 -2 91 52 91 109 L91 217 C91 255 105 295 119 299 C158 310 195 331 206 367 L205 367 L205 367 Z " />
<glyph glyph-name="Abreve" unicode="&#x102;" horiz-adv-x="313" d="M83 804 L77 804 C77 764 110 740 164 740 C216 740 248 764 248 804 L242 804 C242 785 212 774 164 774 C114 774 83 785 83 804 L83 804 Z M38 0 C38 1 39 5 39 5 L79 237 L204 237 L231 5 C230 5 230 5 230 4 L231 0 L297 0 C297 2 297 4 296 5 L204 700 L149 700 L150 693 L29 5 C28 4 28 2 28 0 L38 0 L38 0 Z M202 246 L80 246 L153 666 L202 246 L202 246 Z " />
<glyph glyph-name="abreve" unicode="&#x103;" horiz-adv-x="302" d="M74 704 L68 704 C68 664 101 640 154 640 C206 640 239 664 239 704 L233 704 C233 685 203 674 154 674 C105 674 74 685 74 704 L74 704 Z M34 398 L95 398 C95 398 96 485 96 515 C96 560 122 602 149 602 C185 602 205 560 205 515 L205 388 C205 344 163 319 118 306 C72 293 29 250 29 217 C29 156 30 94 30 94 C30 40 73 -10 119 -10 C158 -10 196 34 205 86 L205 0 L267 0 L267 506 C267 560 218 610 149 610 C89 610 33 560 33 506 C33 478 34 398 34 398 L34 398 Z M205 367 L205 109 C205 52 165 -2 123 -2 C107 -2 91 52 91 109 L91 217 C91 255 105 295 119 299 C158 310 195 331 206 367 L205 367 L205 367 Z " />
<glyph glyph-name="Aogonek" unicode="&#x104;" horiz-adv-x="313" d="M38 0 C38 1 39 5 39 5 L79 237 L204 237 L231 5 C230 5 230 5 230 4 L231 0 L265 0 C246 -20 232 -52 232 -52 C232 -76 254 -99 283 -99 C315 -99 335 -79 335 -57 L301 -57 C301 -77 294 -96 283 -96 C273 -96 265 -76 265 -55 C265 -43 272 -16 281 0 L298 0 C298 2 298 4 297 5 L205 700 L150 700 L151 693 L30 5 C29 4 29 2 29 0 L38 0 L38 0 Z M203 246 L81 246 L154 666 L203 246 L203 246 Z " />
<glyph glyph-name="aogonek" unicode="&#x105;" horiz-adv-x="302" d="M34 398 L95 398 C95 398 96 485 96 515 C96 560 122 602 149 602 C185 602 205 560 205 515 L205 388 C205 344 163 319 118 306 C72 293 29 250 29 217 C29 156 30 94 30 94 C30 40 73 -10 119 -10 C158 -10 196 34 205 86 L205 0 L233 0 C214 -20 200 -52 200 -52 C200 -76 222 -99 251 -99 C284 -99 304 -79 304 -57 L269 -57 C269 -77 262 -96 251 -96 C241 -96 233 -76 233 -55 C233 -43 240 -16 249 0 L268 0 L268 506 C268 560 219 610 150 610 C90 610 34 560 34 506 C34 478 35 398 35 398 L34 398 L34 398 Z M206 367 L206 109 C206 52 166 -2 124 -2 C108 -2 92 52 92 109 L92 217 C92 255 106 295 120 299 C159 310 196 331 207 367 L206 367 L206 367 Z " />
<glyph glyph-name="Cacute" unicode="&#x106;" horiz-adv-x="295" d="M154 740 L161 740 L262 800 L196 800 L154 740 L154 740 Z M270 602 L270 603 L275 602 C275 612 273 622 270 631 C255 675 208 710 159 710 C98 710 41 658 41 602 L41 98 C41 42 98 -10 159 -10 C219 -10 276 42 276 98 L276 129 L266 129 L266 97 C266 47 214 -1 159 -1 C132 -1 106 42 106 87 C106 87 105 339 105 613 C105 658 131 701 159 701 C214 701 266 653 266 603 L266 570 L276 570 L276 602 L270 602 L270 602 Z " />
<glyph glyph-name="cacute" unicode="&#x107;" horiz-adv-x="303" d="M148 640 L154 640 L256 700 L190 700 L148 640 L148 640 Z M268 224 L258 224 L258 99 C258 47 206 -2 151 -2 C123 -2 96 46 96 96 L96 504 C96 554 123 602 151 602 C206 602 258 553 258 501 L258 370 L268 370 L268 501 C268 511 266 521 263 530 C248 574 201 610 152 610 C92 610 35 557 35 501 L35 99 C35 43 92 -10 152 -10 C212 -10 269 43 269 99 L268 224 L268 224 Z " />
<glyph glyph-name="Ccircumflex" unicode="&#x108;" horiz-adv-x="295" d="M270 602 L270 603 L275 602 C275 612 273 622 270 631 C255 675 208 710 159 710 C98 710 41 658 41 602 L41 98 C41 42 98 -10 159 -10 C219 -10 276 42 276 98 L276 129 L266 129 L266 97 C266 47 214 -1 159 -1 C132 -1 106 42 106 87 C106 87 105 339 105 613 C105 658 131 701 159 701 C214 701 266 653 266 603 L266 570 L276 570 L276 602 L270 602 L270 602 Z M126 800 L76 740 L82 740 L159 782 L236 740 L242 740 L192 800 L126 800 L126 800 Z " />
<glyph glyph-name="ccircumflex" unicode="&#x109;" horiz-adv-x="303" d="M268 224 L258 224 L258 99 C258 47 206 -2 151 -2 C123 -2 96 46 96 96 L96 504 C96 554 123 602 151 602 C206 602 258 553 258 501 L258 370 L268 370 L268 501 C268 511 266 521 263 530 C248 574 201 610 152 610 C92 610 35 557 35 501 L35 99 C35 43 92 -10 152 -10 C212 -10 269 43 269 99 L268 224 L268 224 Z M119 700 L70 640 L76 640 L152 682 L228 640 L234 640 L185 700 L119 700 L119 700 Z " />
<glyph glyph-name="Cdot" unicode="&#x10a;" horiz-adv-x="295" d="M125 729 L190 729 L190 794 L125 794 L125 729 L125 729 Z M270 602 L270 603 L275 602 C275 612 273 622 270 631 C255 675 208 710 159 710 C98 710 41 658 41 602 L41 98 C41 42 98 -10 159 -10 C219 -10 276 42 276 98 L276 129 L266 129 L266 97 C266 47 214 -1 159 -1 C132 -1 106 42 106 87 C106 87 105 339 105 613 C105 658 131 701 159 701 C214 701 266 653 266 603 L266 570 L276 570 L276 602 L270 602 L270 602 Z " />
<glyph glyph-name="cdot" unicode="&#x10b;" horiz-adv-x="303" d="M118 629 L184 629 L184 694 L118 694 L118 629 L118 629 Z M268 224 L258 224 L258 99 C258 47 206 -2 151 -2 C123 -2 96 46 96 96 L96 504 C96 554 123 602 151 602 C206 602 258 553 258 501 L258 370 L268 370 L268 501 C268 511 266 521 263 530 C248 574 201 610 152 610 C92 610 35 557 35 501 L35 99 C35 43 92 -10 152 -10 C212 -10 269 43 269 99 L268 224 L268 224 Z " />
<glyph glyph-name="Ccaron" unicode="&#x10c;" horiz-adv-x="295" d="M234 794 L158 756 L82 794 L76 794 L126 740 L191 740 L241 794 L234 794 L234 794 Z M271 602 L271 603 L276 602 C276 612 274 622 271 631 C256 675 209 710 160 710 C99 710 42 658 42 602 L42 98 C42 42 99 -10 160 -10 C220 -10 277 42 277 98 L277 129 L267 129 L267 97 C267 47 215 -1 160 -1 C133 -1 107 42 107 87 C107 87 106 339 106 613 C106 658 132 701 160 701 C215 701 267 653 267 603 L267 570 L277 570 L277 602 L271 602 L271 602 Z " />
<glyph glyph-name="ccaron" unicode="&#x10d;" horiz-adv-x="303" d="M227 700 L151 658 L75 700 L69 700 L118 640 L184 640 L233 700 L227 700 L227 700 Z M268 224 L258 224 L258 99 C258 47 206 -2 151 -2 C123 -2 96 46 96 96 L96 504 C96 554 123 602 151 602 C206 602 258 553 258 501 L258 370 L268 370 L268 501 C268 511 266 521 263 530 C248 574 201 610 152 610 C92 610 35 557 35 501 L35 99 C35 43 92 -10 152 -10 C212 -10 269 43 269 99 L268 224 L268 224 Z " />
<glyph glyph-name="Dcaron" unicode="&#x10e;" horiz-adv-x="338" d="M245 794 L169 756 L93 794 L87 794 L136 740 L202 740 L251 794 L245 794 L245 794 Z M164 0 C233 0 298 51 298 105 L298 596 C298 650 233 700 164 700 L40 700 L40 0 L164 0 L164 0 Z M105 9 L105 691 L164 691 C199 691 232 643 232 593 L232 105 C232 56 199 9 164 9 L105 9 L105 9 Z " />
<glyph glyph-name="dcaron" unicode="&#x10f;" horiz-adv-x="317" d="M354 603 L399 700 L342 700 L322 603 L354 603 L354 603 Z M282 0 L282 700 L220 700 L220 525 C211 571 172 610 131 610 C81 610 34 557 34 501 C34 396 35 199 35 94 C35 40 82 -10 131 -10 C172 -10 211 34 220 87 L220 0 L282 0 L282 0 Z M220 109 C220 52 178 -2 134 -2 C114 -2 96 52 96 109 L96 504 C96 554 114 602 134 602 C178 602 220 554 220 504 L220 109 L220 109 Z " />
<glyph glyph-name="Dcroat" unicode="&#x110;" horiz-adv-x="338" d="M-5 350 L40 350 L40 0 L164 0 C233 0 298 51 298 105 L298 596 C298 650 233 700 164 700 L40 700 L40 388 L-5 388 L-5 350 L-5 350 Z M105 9 L105 350 L208 350 L208 388 L105 388 L105 691 L164 691 C199 691 232 643 232 593 L232 105 C232 56 199 9 164 9 L105 9 L105 9 Z " />
<glyph glyph-name="dcroat" unicode="&#x111;" horiz-adv-x="317" d="M134 638 L220 638 L220 525 C211 571 172 610 131 610 C81 610 34 557 34 501 C34 396 35 199 35 94 C35 40 82 -10 131 -10 C172 -10 211 34 220 87 L220 0 L282 0 L282 638 L347 638 L347 675 L282 675 L282 700 L220 700 L220 675 L134 675 L134 638 L134 638 Z M220 109 C220 52 178 -2 134 -2 C114 -2 96 52 96 109 L96 504 C96 554 114 602 134 602 C178 602 220 554 220 504 L220 109 L220 109 Z " />
<glyph glyph-name="Emacron" unicode="&#x112;" horiz-adv-x="275" d="M32 743 L263 743 L263 784 L32 784 L32 743 L32 743 Z M255 9 L105 9 L105 360 L211 360 L211 370 L105 370 L105 691 L250 691 L250 700 L40 700 L40 0 L255 0 L255 9 L255 9 Z " />
<glyph glyph-name="emacron" unicode="&#x113;" horiz-adv-x="303" d="M36 643 L266 643 L266 684 L36 684 L36 643 L36 643 Z M268 224 L258 224 L258 99 C258 47 206 -2 151 -2 C123 -2 96 46 96 96 L96 312 L281 312 L281 501 C281 557 218 610 151 610 C91 610 34 557 34 501 L34 99 C34 43 91 -10 151 -10 C211 -10 268 43 268 99 L268 224 L268 224 Z M219 320 L96 320 L96 504 C96 554 123 602 151 602 C186 602 219 553 219 501 L219 320 L219 320 Z " />
<glyph glyph-name="Ebreve" unicode="&#x114;" horiz-adv-x="275" d="M67 804 L61 804 C61 764 94 740 148 740 C200 740 232 764 232 804 L226 804 C226 785 196 774 148 774 C98 774 67 785 67 804 L67 804 Z M255 9 L105 9 L105 360 L211 360 L211 370 L105 370 L105 691 L250 691 L250 700 L40 700 L40 0 L255 0 L255 9 L255 9 Z " />
<glyph glyph-name="ebreve" unicode="&#x115;" horiz-adv-x="303" d="M71 704 L65 704 C65 664 98 640 151 640 C203 640 236 664 236 704 L230 704 C230 685 200 674 151 674 C102 674 71 685 71 704 L71 704 Z M268 224 L258 224 L258 99 C258 47 206 -2 151 -2 C123 -2 96 46 96 96 L96 312 L281 312 L281 501 C281 557 218 610 151 610 C91 610 34 557 34 501 L34 99 C34 43 91 -10 151 -10 C211 -10 268 43 268 99 L268 224 L268 224 Z M219 320 L96 320 L96 504 C96 554 123 602 151 602 C186 602 219 553 219 501 L219 320 L219 320 Z " />
<glyph glyph-name="Edot" unicode="&#x116;" horiz-adv-x="275" d="M115 729 L180 729 L180 794 L115 794 L115 729 L115 729 Z M255 9 L105 9 L105 360 L211 360 L211 370 L105 370 L105 691 L250 691 L250 700 L40 700 L40 0 L255 0 L255 9 L255 9 Z " />
<glyph glyph-name="edot" unicode="&#x117;" horiz-adv-x="303" d="M118 629 L184 629 L184 694 L118 694 L118 629 L118 629 Z M268 224 L258 224 L258 99 C258 47 206 -2 151 -2 C123 -2 96 46 96 96 L96 312 L281 312 L281 501 C281 557 218 610 151 610 C91 610 34 557 34 501 L34 99 C34 43 91 -10 151 -10 C211 -10 268 43 268 99 L268 224 L268 224 Z M219 320 L96 320 L96 504 C96 554 123 602 151 602 C186 602 219 553 219 501 L219 320 L219 320 Z " />
<glyph glyph-name="Eogonek" unicode="&#x118;" horiz-adv-x="275" d="M211 370 L105 370 L105 691 L250 691 L250 700 L40 700 L40 0 L196 0 C177 -20 163 -52 163 -52 C163 -76 186 -99 215 -99 C247 -99 267 -79 267 -57 L232 -57 C232 -77 225 -96 214 -96 C204 -96 196 -76 196 -55 C196 -43 203 -16 212 0 L256 0 L256 9 L219 9 C222 12 225 14 228 14 C220 14 216 13 210 9 L108 9 L108 360 L214 360 L211 370 L211 370 Z " />
<glyph glyph-name="eogonek" unicode="&#x119;" horiz-adv-x="303" d="M268 224 L258 224 L258 99 C258 47 206 -2 151 -2 C123 -2 96 46 96 96 L96 312 L281 312 L281 501 C281 557 218 610 151 610 C91 610 34 557 34 501 L34 99 C34 31 116 -31 191 -2 C175 -21 164 -46 164 -46 C164 -71 186 -94 215 -94 C247 -94 267 -74 267 -52 L233 -52 C233 -72 226 -90 215 -90 C205 -90 197 -71 197 -50 C197 -36 206 -3 217 12 C219 13 225 19 227 19 C252 40 269 70 269 101 L268 224 L268 224 Z M220 322 L97 322 L97 506 C97 556 124 604 152 604 C187 604 220 555 220 503 L220 322 L220 322 Z " />
<glyph glyph-name="Ecaron" unicode="&#x11a;" horiz-adv-x="275" d="M224 800 L148 758 L72 800 L66 800 L116 740 L181 740 L231 800 L224 800 L224 800 Z M256 9 L106 9 L106 360 L212 360 L212 370 L106 370 L106 691 L251 691 L251 700 L41 700 L41 0 L256 0 L256 9 L256 9 Z " />
<glyph glyph-name="ecaron" unicode="&#x11b;" horiz-adv-x="303" d="M227 700 L151 658 L75 700 L69 700 L118 640 L184 640 L233 700 L227 700 L227 700 Z M268 224 L258 224 L258 99 C258 47 206 -2 151 -2 C123 -2 96 46 96 96 L96 312 L281 312 L281 501 C281 557 218 610 151 610 C91 610 34 557 34 501 L34 99 C34 43 91 -10 151 -10 C211 -10 268 43 268 99 L268 224 L268 224 Z M219 320 L96 320 L96 504 C96 554 123 602 151 602 C186 602 219 553 219 501 L219 320 L219 320 Z " />
<glyph glyph-name="Gcircumflex" unicode="&#x11c;" horiz-adv-x="329" d="M132 800 L82 740 L88 740 L165 782 L242 740 L248 740 L198 800 L132 800 L132 800 Z M285 600 L288 599 L285 599 L285 600 L285 600 Z M184 338 L184 329 L224 329 C224 291 225 146 225 91 C225 43 196 -2 165 -2 C135 -2 106 41 106 86 C106 86 105 338 105 612 C105 657 134 700 165 700 C195 700 224 656 224 609 L224 566 L290 566 L290 598 C290 608 288 618 285 627 L285 627 L285 627 C269 672 218 709 165 709 C101 709 41 657 41 601 L41 97 C41 41 101 -11 165 -11 C201 -11 236 6 259 31 C270 16 287 2 304 -6 L305 -5 C297 -2 289 49 289 99 C289 160 290 337 290 337 L184 338 L184 338 Z " />
<glyph glyph-name="gcircumflex" unicode="&#x11d;" horiz-adv-x="317" d="M126 700 L76 640 L82 640 L159 682 L236 640 L242 640 L192 700 L126 700 L126 700 Z M220 600 C220 600 220 572 220 527 C210 573 172 611 132 611 C82 611 35 558 35 502 C35 412 36 243 36 153 C36 102 83 54 132 54 C173 54 212 96 221 146 C221 71 221 3 221 -42 C221 -67 191 -91 159 -91 C100 -91 44 -64 44 -36 L44 2 L35 2 L35 -35 C35 -68 95 -99 159 -99 C223 -99 283 -67 283 -33 L283 601 L220 600 L220 600 Z M221 161 C218 109 178 62 136 62 C116 62 98 113 98 168 L98 505 C98 555 116 603 136 603 C176 603 215 562 221 515 C221 427 221 286 221 162 L221 161 L221 161 Z " />
<glyph glyph-name="Gbreve" unicode="&#x11e;" horiz-adv-x="329" d="M84 804 L78 804 C78 764 111 740 165 740 C217 740 249 764 249 804 L243 804 C243 785 213 774 165 774 C115 774 84 785 84 804 L84 804 Z M284 600 L287 599 L284 599 L284 600 L284 600 Z M183 338 L183 329 L223 329 C223 291 224 146 224 91 C224 43 195 -2 164 -2 C134 -2 105 41 105 86 C105 86 104 338 104 612 C104 657 133 700 164 700 C194 700 223 656 223 609 L223 566 L289 566 L289 598 C289 608 287 618 284 627 L284 627 L284 627 C268 672 217 709 164 709 C100 709 40 657 40 601 L40 97 C40 41 100 -11 164 -11 C200 -11 235 6 258 31 C269 16 286 2 303 -6 L304 -5 C296 -2 288 49 288 99 C288 160 289 337 289 337 L183 338 L183 338 Z " />
<glyph glyph-name="gbreve" unicode="&#x11f;" horiz-adv-x="317" d="M78 704 L72 704 C72 664 105 640 159 640 C211 640 243 664 243 704 L237 704 C237 685 207 674 159 674 C109 674 78 685 78 704 L78 704 Z M219 600 C219 600 219 572 219 527 C209 573 171 611 131 611 C81 611 34 558 34 502 C34 412 35 243 35 153 C35 102 82 54 131 54 C172 54 211 96 220 146 C220 71 220 3 220 -42 C220 -67 190 -91 158 -91 C99 -91 43 -64 43 -36 L43 2 L34 2 L34 -35 C34 -68 94 -99 158 -99 C222 -99 282 -67 282 -33 L282 601 L219 600 L219 600 Z M220 161 C217 109 177 62 135 62 C115 62 97 113 97 168 L97 505 C97 555 115 603 135 603 C175 603 214 562 220 515 C220 427 220 286 220 162 L220 161 L220 161 Z " />
<glyph glyph-name="Gdot" unicode="&#x120;" horiz-adv-x="329" d="M132 729 L197 729 L197 794 L132 794 L132 729 L132 729 Z M284 600 L287 599 L284 599 L284 600 L284 600 Z M183 338 L183 329 L223 329 C223 291 224 146 224 91 C224 43 195 -2 164 -2 C134 -2 105 41 105 86 C105 86 104 338 104 612 C104 657 133 700 164 700 C194 700 223 656 223 609 L223 566 L289 566 L289 598 C289 608 287 618 284 627 L284 627 L284 627 C268 672 217 709 164 709 C100 709 40 657 40 601 L40 97 C40 41 100 -11 164 -11 C200 -11 235 6 258 31 C269 16 286 2 303 -6 L304 -5 C296 -2 288 49 288 99 C288 160 289 337 289 337 L183 338 L183 338 Z " />
<glyph glyph-name="gdot" unicode="&#x121;" horiz-adv-x="317" d="M126 629 L191 629 L191 694 L126 694 L126 629 L126 629 Z M219 600 C219 600 219 572 219 527 C209 573 171 611 131 611 C81 611 34 558 34 502 C34 412 35 243 35 153 C35 102 82 54 131 54 C172 54 211 96 220 146 C220 71 220 3 220 -42 C220 -67 190 -91 158 -91 C99 -91 43 -64 43 -36 L43 2 L34 2 L34 -35 C34 -68 94 -99 158 -99 C222 -99 282 -67 282 -33 L282 601 L219 600 L219 600 Z M220 161 C217 109 177 62 135 62 C115 62 97 113 97 168 L97 505 C97 555 115 603 135 603 C175 603 214 562 220 515 C220 427 220 286 220 162 L220 161 L220 161 Z " />
<glyph glyph-name="Hcircumflex" unicode="&#x124;" horiz-adv-x="338" d="M136 800 L87 740 L93 740 L169 782 L245 740 L251 740 L202 800 L136 800 L136 800 Z M298 0 L298 700 L232 700 L232 368 L105 368 L105 700 L40 700 L40 0 L105 0 L105 360 L232 360 L232 0 L298 0 L298 0 Z " />
<glyph glyph-name="hcircumflex" unicode="&#x125;" horiz-adv-x="316" d="M125 800 L75 740 L81 740 L158 782 L235 740 L241 740 L191 800 L125 800 L125 800 Z M282 0 L282 506 C282 560 235 610 186 610 C146 610 108 568 97 518 L97 700 L35 700 L35 0 L97 0 L97 490 C97 548 139 602 183 602 C202 602 220 548 220 491 L220 0 L282 0 L282 0 Z " />
<glyph glyph-name="Itilde" unicode="&#x128;" horiz-adv-x="145" d="M-24 729 L7 729 C4 743 14 757 26 757 C36 757 53 752 62 748 C81 739 110 729 123 729 C152 729 173 758 168 789 L137 789 C140 775 130 761 118 761 C108 761 91 766 82 770 C63 779 34 789 21 789 C-8 789 -29 760 -24 729 L-24 729 Z M105 0 L105 700 L39 700 L39 0 L105 0 L105 0 Z " />
<glyph glyph-name="itilde" unicode="&#x129;" horiz-adv-x="132" d="M-30 629 L1 629 C-2 643 8 657 20 657 C30 657 47 652 56 648 C75 639 104 629 117 629 C146 629 167 658 162 689 L131 689 C134 675 124 661 112 661 C102 661 85 666 76 670 C57 679 28 689 15 689 C-14 689 -35 660 -30 629 L-30 629 Z M97 0 L97 600 L35 600 L35 0 L97 0 L97 0 Z " />
<glyph glyph-name="Imacron" unicode="&#x12a;" horiz-adv-x="145" d="M-43 743 L187 743 L187 784 L-43 784 L-43 743 L-43 743 Z M105 0 L105 700 L39 700 L39 0 L105 0 L105 0 Z " />
<glyph glyph-name="imacron" unicode="&#x12b;" horiz-adv-x="132" d="M-49 643 L181 643 L181 684 L-49 684 L-49 643 L-49 643 Z M97 0 L97 600 L35 600 L35 0 L97 0 L97 0 Z " />
<glyph glyph-name="Iogonek" unicode="&#x12e;" horiz-adv-x="145" d="M84 0 L105 0 L105 700 L39 700 L39 0 L69 0 C50 -20 36 -52 36 -52 C36 -76 58 -99 87 -99 C120 -99 140 -79 140 -57 L105 -57 C105 -77 98 -96 87 -96 C77 -96 69 -76 69 -55 C69 -43 76 -16 85 0 L84 0 L84 0 Z " />
<glyph glyph-name="iogonek" unicode="&#x12f;" horiz-adv-x="132" d="M33 633 L99 633 L99 699 L33 699 L33 633 L33 633 Z M78 0 L97 0 L97 600 L35 600 L35 0 L63 0 C44 -20 30 -52 30 -52 C30 -76 52 -99 81 -99 C114 -99 134 -79 134 -57 L99 -57 C99 -77 92 -96 81 -96 C71 -96 63 -76 63 -55 C63 -43 70 -16 79 0 L78 0 L78 0 Z " />
<glyph glyph-name="Idot" unicode="&#x130;" horiz-adv-x="145" d="M39 729 L105 729 L105 794 L39 794 L39 729 L39 729 Z M105 0 L105 700 L39 700 L39 0 L105 0 L105 0 Z " />
<glyph glyph-name="dotlessi" unicode="&#x131;" horiz-adv-x="132" d="M97 0 L97 600 L35 600 L35 0 L97 0 L97 0 Z " />
<glyph glyph-name="Jcircumflex" unicode="&#x134;" horiz-adv-x="295" d="M191 800 L142 740 L148 740 L224 782 L300 740 L306 740 L257 800 L191 800 L191 800 Z M193 700 L193 91 C193 44 163 -1 132 -1 C102 -1 74 41 74 86 L74 142 L9 142 C9 121 8 94 8 94 C7 40 68 -10 132 -10 C195 -10 255 41 255 95 L255 700 L193 700 L193 700 Z " />
<glyph glyph-name="Lacute" unicode="&#x139;" horiz-adv-x="255" d="M69 740 L76 740 L177 800 L111 800 L69 740 L69 740 Z M240 9 L105 9 L105 700 L40 700 L40 0 L240 0 L240 9 L240 9 Z " />
<glyph glyph-name="lacute" unicode="&#x13a;" horiz-adv-x="132" d="M63 740 L69 740 L171 800 L105 800 L63 740 L63 740 Z M97 0 L97 700 L35 700 L35 0 L97 0 L97 0 Z " />
<glyph glyph-name="Lcaron" unicode="&#x13d;" horiz-adv-x="255" d="M177 603 L222 700 L165 700 L145 603 L177 603 L177 603 Z M240 9 L105 9 L105 700 L40 700 L40 0 L240 0 L240 9 L240 9 Z " />
<glyph glyph-name="lcaron" unicode="&#x13e;" horiz-adv-x="132" d="M177 603 L222 700 L165 700 L145 603 L177 603 L177 603 Z M97 0 L97 700 L35 700 L35 0 L97 0 L97 0 Z " />
<glyph glyph-name="Nacute" unicode="&#x143;" horiz-adv-x="339" d="M173 740 L180 740 L281 800 L215 800 L173 740 L173 740 Z M291 700 L291 90 L94 700 L37 700 L54 648 L54 0 L63 0 L63 620 L264 0 L320 0 L299 65 L299 700 L291 700 L291 700 Z " />
<glyph glyph-name="nacute" unicode="&#x144;" horiz-adv-x="316" d="M154 640 L161 640 L262 700 L196 700 L154 640 L154 640 Z M281 0 L281 506 C281 560 231 610 178 610 C146 610 115 587 97 554 L97 600 L35 600 L35 0 L97 0 L97 490 C97 548 135 602 176 602 C199 602 220 548 220 491 L220 0 L281 0 L281 0 Z " />
<glyph glyph-name="Ncaron" unicode="&#x147;" horiz-adv-x="339" d="M253 800 L177 758 L101 800 L95 800 L145 740 L210 740 L260 800 L253 800 L253 800 Z M292 700 L292 90 L95 700 L38 700 L55 648 L55 0 L64 0 L64 620 L265 0 L321 0 L300 65 L300 700 L292 700 L292 700 Z " />
<glyph glyph-name="ncaron" unicode="&#x148;" horiz-adv-x="316" d="M234 700 L158 658 L82 700 L76 700 L126 640 L191 640 L241 700 L234 700 L234 700 Z M282 0 L282 506 C282 560 232 610 179 610 C147 610 116 587 98 554 L98 600 L36 600 L36 0 L98 0 L98 490 C98 548 136 602 177 602 C200 602 221 548 221 491 L221 0 L282 0 L282 0 Z " />
<glyph glyph-name="Omacron" unicode="&#x14c;" horiz-adv-x="327" d="M48 743 L278 743 L278 784 L48 784 L48 743 L48 743 Z M221 86 C221 41 193 -1 163 -1 C133 -1 104 41 104 86 L104 614 C104 659 133 701 163 701 C193 701 221 659 221 614 L221 86 L221 86 Z M287 98 L287 602 C287 658 227 710 163 710 C99 710 39 658 39 602 L39 98 C39 42 99 -10 163 -10 C227 -10 287 42 287 98 L287 98 Z " />
<glyph glyph-name="omacron" unicode="&#x14d;" horiz-adv-x="316" d="M43 643 L273 643 L273 684 L43 684 L43 643 L43 643 Z M221 90 C221 43 190 -2 158 -2 C126 -2 96 43 96 90 L96 510 C96 557 126 602 158 602 C190 602 221 557 221 510 L221 90 L221 90 Z M281 101 L281 499 C281 556 221 610 158 610 C95 610 35 556 35 499 L35 101 C35 44 95 -10 158 -10 C221 -10 281 44 281 101 L281 101 Z " />
<glyph glyph-name="Obreve" unicode="&#x14e;" horiz-adv-x="327" d="M83 804 L77 804 C77 764 110 740 163 740 C215 740 248 764 248 804 L242 804 C242 785 212 774 163 774 C114 774 83 785 83 804 L83 804 Z M221 86 C221 41 193 -1 163 -1 C133 -1 104 41 104 86 L104 614 C104 659 133 701 163 701 C193 701 221 659 221 614 L221 86 L221 86 Z M287 98 L287 602 C287 658 227 710 163 710 C99 710 39 658 39 602 L39 98 C39 42 99 -10 163 -10 C227 -10 287 42 287 98 L287 98 Z " />
<glyph glyph-name="obreve" unicode="&#x14f;" horiz-adv-x="316" d="M78 704 L72 704 C72 664 105 640 158 640 C210 640 243 664 243 704 L237 704 C237 685 207 674 158 674 C109 674 78 685 78 704 L78 704 Z M221 90 C221 43 190 -2 158 -2 C126 -2 96 43 96 90 L96 510 C96 557 126 602 158 602 C190 602 221 557 221 510 L221 90 L221 90 Z M281 101 L281 499 C281 556 221 610 158 610 C95 610 35 556 35 499 L35 101 C35 44 95 -10 158 -10 C221 -10 281 44 281 101 L281 101 Z " />
<glyph glyph-name="Racute" unicode="&#x154;" horiz-adv-x="338" d="M166 740 L172 740 L274 800 L208 800 L166 740 L166 740 Z M232 0 L298 0 L298 260 C298 302 256 342 205 354 C256 368 298 413 298 460 L298 596 C298 650 237 700 173 700 L40 700 L40 0 L105 0 L105 348 L175 348 C204 348 232 304 232 257 L232 0 L232 0 Z M173 357 L105 357 L105 691 L173 691 C203 691 232 643 232 593 L232 460 C232 407 203 357 173 357 L173 357 Z " />
<glyph glyph-name="racute" unicode="&#x155;" horiz-adv-x="282" d="M150 640 L156 640 L258 700 L192 700 L150 640 L150 640 Z M210 410 L272 410 L272 506 C272 560 228 610 181 610 C143 610 106 569 95 519 L95 600 L33 600 L33 0 L95 0 L95 490 C95 548 135 602 177 602 C193 602 209 548 209 491 L210 410 L210 410 Z " />
<glyph glyph-name="Rcaron" unicode="&#x158;" horiz-adv-x="338" d="M245 800 L169 758 L93 800 L87 800 L136 740 L202 740 L251 800 L245 800 L245 800 Z M232 0 L298 0 L298 260 C298 302 256 342 205 354 C256 368 298 413 298 460 L298 596 C298 650 237 700 173 700 L40 700 L40 0 L105 0 L105 348 L175 348 C204 348 232 304 232 257 L232 0 L232 0 Z M173 357 L105 357 L105 691 L173 691 C203 691 232 643 232 593 L232 460 C232 407 203 357 173 357 L173 357 Z " />
<glyph glyph-name="rcaron" unicode="&#x159;" horiz-adv-x="282" d="M229 700 L153 658 L77 700 L71 700 L120 640 L186 640 L235 700 L229 700 L229 700 Z M210 410 L272 410 L272 506 C272 560 228 610 181 610 C143 610 106 569 95 519 L95 600 L33 600 L33 0 L95 0 L95 490 C95 548 135 602 177 602 C193 602 209 548 209 491 L210 410 L210 410 Z " />
<glyph glyph-name="Sacute" unicode="&#x15a;" horiz-adv-x="296" d="M144 740 L151 740 L252 800 L186 800 L144 740 L144 740 Z M24 133 L24 89 C24 80 26 71 29 63 L29 63 C45 23 95 -10 147 -10 C210 -10 270 50 270 114 C270 178 229 297 176 375 C127 447 89 544 89 599 C89 651 118 701 148 701 C178 701 206 657 206 611 L206 573 L271 573 L271 611 C271 620 269 629 266 637 L266 637 C250 677 200 710 148 710 C85 710 25 651 25 588 C25 521 66 411 119 333 C167 263 204 157 204 102 C204 49 176 -1 147 -1 C117 -1 89 43 89 89 L89 133 L24 133 L24 133 Z " />
<glyph glyph-name="sacute" unicode="&#x15b;" horiz-adv-x="283" d="M139 640 L145 640 L247 700 L181 700 L139 640 L139 640 Z M19 195 L19 93 C19 84 21 75 24 66 C40 24 89 -10 141 -10 C204 -10 263 53 263 120 C263 167 220 260 165 322 C119 374 83 449 83 494 C83 550 112 602 142 602 C173 602 202 556 202 507 L202 414 L264 414 L264 507 C264 516 262 525 259 534 C243 576 194 610 142 610 C79 610 20 549 20 485 C20 430 63 340 118 278 C166 224 203 147 203 109 C203 52 173 -2 141 -2 C110 -2 81 44 81 93 L81 195 L19 195 L19 195 Z " />
<glyph glyph-name="Scircumflex" unicode="&#x15c;" horiz-adv-x="296" d="M24 133 L24 89 C24 80 26 71 29 63 L29 63 C45 23 95 -10 147 -10 C210 -10 270 50 270 114 C270 178 229 297 176 375 C127 447 89 544 89 599 C89 651 118 701 148 701 C178 701 206 657 206 611 L206 573 L271 573 L271 611 C271 620 269 629 266 637 L266 637 C250 677 200 710 148 710 C85 710 25 651 25 588 C25 521 66 411 119 333 C167 263 204 157 204 102 C204 49 176 -1 147 -1 C117 -1 89 43 89 89 L89 133 L24 133 L24 133 Z M115 800 L65 740 L71 740 L148 782 L225 740 L231 740 L181 800 L115 800 L115 800 Z " />
<glyph glyph-name="scircumflex" unicode="&#x15d;" horiz-adv-x="283" d="M19 195 L19 93 C19 84 21 75 24 66 C40 24 89 -10 141 -10 C204 -10 263 53 263 120 C263 167 220 260 165 322 C119 374 83 449 83 494 C83 550 112 602 142 602 C173 602 202 556 202 507 L202 414 L264 414 L264 507 C264 516 262 525 259 534 C243 576 194 610 142 610 C79 610 20 549 20 485 C20 430 63 340 118 278 C166 224 203 147 203 109 C203 52 173 -2 141 -2 C110 -2 81 44 81 93 L81 195 L19 195 L19 195 Z M109 700 L60 640 L66 640 L142 682 L218 640 L224 640 L175 700 L109 700 L109 700 Z " />
<glyph glyph-name="Scedilla" unicode="&#x15e;" horiz-adv-x="296" d="M24 133 L24 89 C24 80 26 71 29 63 L29 63 C44 24 91 -8 141 -10 L117 -49 L121 -49 C124 -46 146 -44 154 -44 C165 -44 169 -63 169 -79 C169 -83 158 -87 146 -87 C132 -87 118 -78 118 -68 L113 -68 C113 -89 129 -109 145 -109 C173 -109 199 -94 199 -79 L199 -72 C199 -45 154 -35 123 -45 L144 -10 C208 -10 268 49 268 114 C268 178 227 297 174 375 C125 447 87 544 87 599 C87 651 116 701 146 701 C176 701 204 657 204 611 L204 573 L269 573 L269 611 C269 620 267 629 264 637 L264 637 C248 677 198 710 146 710 C83 710 23 651 23 588 C23 521 64 411 117 333 C165 263 202 157 202 102 C202 49 174 -1 145 -1 C115 -1 87 43 87 89 L87 133 L24 133 L24 133 Z " />
<glyph glyph-name="scedilla" unicode="&#x15f;" horiz-adv-x="283" d="M19 195 L19 93 C19 84 21 75 24 66 C39 25 86 -8 136 -10 L112 -49 L116 -49 C119 -46 141 -44 149 -44 C160 -44 164 -63 164 -79 C164 -83 153 -87 141 -87 C127 -87 113 -78 113 -68 L108 -68 C108 -89 124 -109 140 -109 C168 -109 194 -94 194 -79 L194 -72 C194 -45 149 -35 118 -45 L139 -10 C203 -10 262 52 262 120 C262 167 219 260 164 322 C118 374 82 449 82 494 C82 550 111 602 141 602 C172 602 201 556 201 507 L201 414 L263 414 L263 507 C263 516 261 525 258 534 C242 576 193 610 141 610 C78 610 19 549 19 485 C19 430 62 340 117 278 C165 224 202 147 202 109 C202 52 172 -2 140 -2 C109 -2 80 44 80 93 L80 195 L19 195 L19 195 Z " />
<glyph glyph-name="Scaron" unicode="&#x160;" horiz-adv-x="296" d="M224 800 L148 758 L72 800 L66 800 L116 740 L181 740 L231 800 L224 800 L224 800 Z M25 133 L25 89 C25 80 27 71 30 63 L30 63 C46 23 96 -10 148 -10 C211 -10 271 50 271 114 C271 178 230 297 177 375 C128 447 90 544 90 599 C90 651 119 701 149 701 C179 701 207 657 207 611 L207 573 L272 573 L272 611 C272 620 270 629 267 637 L267 637 C251 677 201 710 149 710 C86 710 26 651 26 588 C26 521 67 411 120 333 C168 263 205 157 205 102 C205 49 177 -1 148 -1 C118 -1 90 43 90 89 L90 133 L25 133 L25 133 Z " />
<glyph glyph-name="scaron" unicode="&#x161;" horiz-adv-x="283" d="M218 700 L142 658 L66 700 L60 700 L109 640 L175 640 L224 700 L218 700 L218 700 Z M19 195 L19 93 C19 84 21 75 24 66 C40 24 89 -10 141 -10 C204 -10 263 53 263 120 C263 167 220 260 165 322 C119 374 83 449 83 494 C83 550 112 602 142 602 C173 602 202 556 202 507 L202 414 L264 414 L264 507 C264 516 262 525 259 534 C243 576 194 610 142 610 C79 610 20 549 20 485 C20 430 63 340 118 278 C166 224 203 147 203 109 C203 52 173 -2 141 -2 C110 -2 81 44 81 93 L81 195 L19 195 L19 195 Z " />
<glyph glyph-name="Tcaron" unicode="&#x164;" horiz-adv-x="285" d="M219 794 L143 756 L67 794 L61 794 L111 740 L176 740 L226 794 L219 794 L219 794 Z M281 700 L6 700 L6 691 L111 691 L111 0 L176 0 L176 691 L281 691 L281 700 L281 700 Z " />
<glyph glyph-name="tcaron" unicode="&#x165;" horiz-adv-x="306" d="M198 653 L243 750 L186 750 L166 653 L198 653 L198 653 Z M296 214 L286 214 L286 99 C286 47 236 -2 184 -2 C158 -2 134 46 134 96 L134 591 L264 591 L264 600 L134 600 L134 710 L115 710 C115 674 94 640 72 640 L72 600 L5 600 L5 591 L72 591 L72 99 C72 43 126 -10 184 -10 C242 -10 296 43 296 99 L296 214 L296 214 Z " />
<glyph glyph-name="Utilde" unicode="&#x168;" horiz-adv-x="313" d="M60 729 L91 729 C88 743 98 757 110 757 C120 757 137 752 146 748 C165 739 194 729 207 729 C236 729 257 758 252 789 L221 789 C224 775 214 761 202 761 C192 761 175 766 166 770 C147 779 118 789 105 789 C76 789 55 760 60 729 L60 729 Z M263 700 L263 94 C263 45 211 -1 156 -1 C129 -1 104 41 104 86 L104 700 L39 700 L39 98 C39 42 96 -10 156 -10 C216 -10 273 41 273 95 L273 700 L263 700 L263 700 Z " />
<glyph glyph-name="utilde" unicode="&#x169;" horiz-adv-x="317" d="M62 629 L93 629 C90 643 100 657 112 657 C122 657 139 652 148 648 C167 639 196 629 209 629 C238 629 259 658 254 689 L223 689 C226 675 216 661 204 661 C194 661 177 666 168 670 C149 679 120 689 107 689 C78 689 57 660 62 629 L62 629 Z M34 597 C34 596 34 595 34 595 L35 94 C35 40 82 -10 131 -10 C172 -10 211 34 220 87 L220 0 L282 0 L282 600 L220 600 L220 109 C220 52 178 -2 134 -2 C114 -2 96 52 96 109 L96 600 L34 600 L34 597 L34 597 Z " />
<glyph glyph-name="Umacron" unicode="&#x16a;" horiz-adv-x="313" d="M41 743 L271 743 L271 784 L41 784 L41 743 L41 743 Z M263 700 L263 94 C263 45 211 -1 156 -1 C129 -1 104 41 104 86 L104 700 L39 700 L39 98 C39 42 96 -10 156 -10 C216 -10 273 41 273 95 L273 700 L263 700 L263 700 Z " />
<glyph glyph-name="umacron" unicode="&#x16b;" horiz-adv-x="317" d="M43 643 L273 643 L273 684 L43 684 L43 643 L43 643 Z M34 597 C34 596 34 595 34 595 L35 94 C35 40 82 -10 131 -10 C172 -10 211 34 220 87 L220 0 L282 0 L282 600 L220 600 L220 109 C220 52 178 -2 134 -2 C114 -2 96 52 96 109 L96 600 L34 600 L34 597 L34 597 Z " />
<glyph glyph-name="Uring" unicode="&#x16e;" horiz-adv-x="313" d="M156 807 C179 807 179 744 156 744 C133 744 133 807 156 807 L156 807 Z M110 775 C110 758 132 741 156 741 C180 741 202 758 202 775 C202 793 180 810 156 810 C132 810 110 793 110 775 L110 775 Z M263 700 L263 94 C263 45 211 -1 156 -1 C129 -1 104 41 104 86 L104 700 L39 700 L39 98 C39 42 96 -10 156 -10 C216 -10 273 41 273 95 L273 700 L263 700 L263 700 Z " />
<glyph glyph-name="uring" unicode="&#x16f;" horiz-adv-x="317" d="M158 706 C181 706 181 643 158 643 C135 643 135 706 158 706 L158 706 Z M112 674 C112 657 134 640 158 640 C182 640 204 657 204 674 C204 692 182 709 158 709 C134 709 112 692 112 674 L112 674 Z M34 597 C34 596 34 595 34 595 L35 94 C35 40 82 -10 131 -10 C172 -10 211 34 220 87 L220 0 L282 0 L282 600 L220 600 L220 109 C220 52 178 -2 134 -2 C114 -2 96 52 96 109 L96 600 L34 600 L34 597 L34 597 Z " />
<glyph glyph-name="Uogonek" unicode="&#x172;" horiz-adv-x="313" d="M263 700 L263 94 C263 45 212 -1 158 -2 C161 1 164 3 167 3 C160 3 156 2 150 -1 C126 6 105 44 105 85 L105 699 L40 699 L40 97 C40 47 86 0 139 -9 C119 -28 104 -62 104 -62 C104 -86 126 -109 155 -109 C187 -109 207 -89 207 -67 L173 -67 C173 -87 166 -106 155 -106 C145 -106 137 -86 137 -65 C137 -53 144 -26 153 -10 C216 -13 275 40 275 95 L275 700 L263 700 L263 700 Z " />
<glyph glyph-name="uogonek" unicode="&#x173;" horiz-adv-x="317" d="M34 597 C34 596 34 595 34 595 L35 94 C35 40 82 -10 131 -10 C172 -10 211 34 220 87 L220 0 L253 0 C234 -20 220 -52 220 -52 C220 -76 242 -99 271 -99 C303 -99 323 -79 323 -57 L289 -57 C289 -77 282 -96 271 -96 C261 -96 253 -76 253 -55 C253 -43 260 -16 269 0 L283 0 L283 600 L221 600 L221 109 C221 52 179 -2 135 -2 C115 -2 97 52 97 109 L97 600 L35 600 L34 597 L34 597 Z " />
<glyph glyph-name="Wcircumflex" unicode="&#x174;" horiz-adv-x="445" d="M417 700 L408 700 L372 51 L242 700 L184 700 L197 640 L119 0 L90 700 L29 700 L29 695 L29 695 L69 0 L126 0 L202 613 L331 0 L382 0 L378 19 C391 244 403 470 417 695 L417 700 L417 700 Z M190 800 L141 740 L147 740 L223 782 L299 740 L305 740 L256 800 L190 800 L190 800 Z " />
<glyph glyph-name="wcircumflex" unicode="&#x175;" horiz-adv-x="443" d="M413 600 L404 600 L369 40 L237 600 L187 600 L198 553 L117 10 L90 600 L28 600 L28 595 L28 595 L68 0 L123 0 L201 535 L328 0 L377 0 L373 17 C386 210 398 404 412 596 L413 600 L413 600 Z M187 701 L138 641 L144 641 L220 683 L296 641 L302 641 L253 701 L187 701 L187 701 Z " />
<glyph glyph-name="Ycircumflex" unicode="&#x176;" horiz-adv-x="336" d="M134 800 L85 740 L91 740 L167 782 L243 740 L249 740 L200 800 L134 800 L134 800 Z M34 695 L142 296 L142 0 L208 0 L208 296 C239 429 269 562 300 695 L300 696 L301 700 L291 700 C291 700 290 697 290 695 L201 295 L191 295 L102 695 C102 697 101 699 101 699 L33 699 L34 694 L34 695 L34 695 Z " />
<glyph glyph-name="ycircumflex" unicode="&#x177;" horiz-adv-x="317" d="M34 595 C34 595 34 154 35 152 C35 101 82 53 131 53 C172 53 211 95 220 145 C220 70 220 2 220 -43 C220 -68 190 -92 158 -92 C99 -92 43 -65 43 -37 L43 1 L34 1 L34 -36 C34 -69 94 -100 158 -100 C222 -100 282 -68 282 -34 L282 600 L219 600 C219 559 220 346 220 159 C217 107 177 60 135 60 C115 60 97 111 97 166 L97 599 L35 599 L34 595 L34 595 Z M127 699 L77 639 L83 639 L160 681 L237 639 L243 639 L193 699 L127 699 L127 699 Z " />
<glyph glyph-name="Ydieresis" unicode="&#x178;" horiz-adv-x="336" d="M182 740 L239 740 L239 797 L182 797 L182 740 L182 740 Z M95 740 L152 740 L152 797 L95 797 L95 740 L95 740 Z M34 695 L142 296 L142 0 L208 0 L208 296 C239 429 269 562 300 695 L300 696 L301 700 L291 700 C291 700 290 697 290 695 L201 295 L191 295 L102 695 C102 697 101 699 101 699 L33 699 L34 694 L34 695 L34 695 Z " />
<glyph glyph-name="Zacute" unicode="&#x179;" horiz-adv-x="292" d="M142 740 L149 740 L250 794 L184 794 L142 740 L142 740 Z M20 691 L199 691 L21 9 L20 6 L20 0 L270 0 L270 9 L88 9 L266 691 L269 700 L20 700 L20 691 L20 691 Z " />
<glyph glyph-name="zacute" unicode="&#x17a;" horiz-adv-x="277" d="M133 640 L140 640 L241 700 L175 700 L133 640 L133 640 Z M12 592 L196 592 L13 8 L12 6 L12 0 L262 0 L262 8 L75 8 L258 592 L261 600 L12 600 L12 592 L12 592 Z " />
<glyph glyph-name="Zdot" unicode="&#x17b;" horiz-adv-x="292" d="M113 729 L178 729 L178 794 L113 794 L113 729 L113 729 Z M20 691 L199 691 L21 9 L20 6 L20 0 L270 0 L270 9 L88 9 L266 691 L269 700 L20 700 L20 691 L20 691 Z " />
<glyph glyph-name="zdot" unicode="&#x17c;" horiz-adv-x="277" d="M104 629 L169 629 L169 694 L104 694 L104 629 L104 629 Z M12 592 L196 592 L13 8 L12 6 L12 0 L262 0 L262 8 L75 8 L258 592 L261 600 L12 600 L12 592 L12 592 Z " />
<glyph glyph-name="Zcaron" unicode="&#x17d;" horiz-adv-x="292" d="M237 794 L161 756 L85 794 L79 794 L129 740 L194 740 L244 794 L237 794 L237 794 Z M21 691 L200 691 L22 9 L21 6 L21 0 L271 0 L271 9 L89 9 L267 691 L270 700 L21 700 L21 691 L21 691 Z " />
<glyph glyph-name="zcaron" unicode="&#x17e;" horiz-adv-x="277" d="M213 700 L137 658 L61 700 L55 700 L105 640 L170 640 L220 700 L213 700 L213 700 Z M13 592 L197 592 L14 8 L13 6 L13 0 L263 0 L263 8 L76 8 L259 592 L262 600 L13 600 L13 592 L13 592 Z " />
<glyph glyph-name="oogonek" unicode="&#x1eb;" horiz-adv-x="281" d="M181 87 C181 41 161 -2 140 -2 C118 -2 98 41 98 87 L98 553 C98 599 118 642 140 642 C161 642 181 599 181 553 L181 87 L181 87 Z M261 -16 C250 2 240 58 240 98 L240 542 C240 598 191 650 140 650 C88 650 39 598 39 542 L39 98 C39 42 88 -10 140 -10 C181 -10 221 24 235 66 C239 33 250 -2 261 -15 L261 -16 L261 -16 Z " />
<glyph glyph-name="Oslashacute" unicode="&#x1fe;" horiz-adv-x="327" d="M160 740 L166 740 L268 800 L202 800 L160 740 L160 740 Z M287 98 L287 602 C287 616 284 629 278 641 L302 710 L274 710 L259 668 C235 693 200 710 163 710 C99 710 39 658 39 602 L39 98 C39 84 42 71 48 59 L24 -10 L52 -10 L67 32 C91 7 126 -10 163 -10 C227 -10 287 42 287 98 L287 98 Z M104 219 L104 614 C104 659 133 701 163 701 C193 701 221 659 221 614 L221 559 L104 219 L104 219 Z M104 138 L221 478 L221 86 C221 41 193 -1 163 -1 C133 -1 104 41 104 86 L104 138 L104 138 Z " />
<glyph glyph-name="oslashacute" unicode="&#x1ff;" horiz-adv-x="316" d="M155 640 L161 640 L263 700 L197 700 L155 640 L155 640 Z M281 101 L281 499 C281 515 277 530 269 544 L295 610 L267 610 L251 569 C228 594 194 611 159 611 C96 611 36 557 36 500 L36 102 C36 86 40 71 48 57 L22 -9 L50 -9 L66 32 C89 7 123 -10 158 -10 C221 -10 281 44 281 101 L281 101 Z M96 179 L96 510 C96 557 126 602 158 602 C190 602 221 557 221 510 L221 494 L96 179 L96 179 Z M96 108 L221 423 L221 90 C221 43 190 -2 158 -2 C126 -2 96 43 96 90 L96 108 L96 108 Z " />
<glyph glyph-name="G_sc" unicode="&#x262;" horiz-adv-x="282" d="M237 542 L240 541 L237 541 L237 542 L237 542 Z M143 309 L143 301 L183 301 L183 92 C183 44 163 -2 141 -2 C119 -2 99 42 99 88 C99 88 98 310 98 552 C98 598 119 642 141 642 C163 642 183 597 183 550 L183 509 L242 509 L242 541 C242 597 193 650 141 650 C89 650 40 598 40 543 L40 97 C40 42 89 -10 141 -10 C170 -10 198 7 217 32 C226 18 240 4 255 -4 L256 -3 C248 1 240 51 240 100 L240 310 L143 309 L143 309 Z " />
<glyph glyph-name="I_sc" unicode="&#x26a;" horiz-adv-x="138" d="M98 0 L98 640 L40 640 L40 0 L98 0 L98 0 Z " />
<glyph glyph-name="N_sc" unicode="&#x274;" horiz-adv-x="293" d="M245 640 L245 82 L88 640 L37 640 L53 583 L53 0 L60 0 L60 559 L218 0 L268 0 L253 53 L253 640 L245 640 L245 640 Z " />
<glyph glyph-name="R_sc" unicode="&#x280;" horiz-adv-x="291" d="M192 0 L251 0 L251 240 C251 278 217 314 176 325 C217 338 251 379 251 422 L251 544 C251 593 201 639 149 639 L40 639 L40 -1 L99 -1 L99 320 L149 320 C172 320 192 281 192 237 L192 0 L192 0 Z M149 328 L99 328 L99 631 L149 631 C171 631 192 587 192 541 L192 422 C192 374 171 328 149 328 L149 328 Z " />
<glyph glyph-name="Y_sc" unicode="&#x28f;" horiz-adv-x="291" d="M245 635 L175 271 L166 271 L96 635 L95 640 L33 640 L34 636 L34 635 L34 635 L122 271 L122 0 L181 0 L181 271 L255 635 C255 635 256 638 256 640 C250 640 245 642 245 635 L245 635 Z " />
<glyph glyph-name="B_sc" unicode="&#x299;" horiz-adv-x="291" d="M139 341 L99 341 L99 632 L139 632 C163 632 185 588 185 542 L185 404 C185 372 163 341 139 341 L139 341 Z M167 340 C210 351 245 385 245 420 L245 545 C245 594 194 640 140 640 L41 640 L41 0 L151 0 C203 0 252 47 252 96 L252 252 C252 293 213 332 168 340 L167 340 L167 340 Z M100 8 L100 333 L151 333 C173 333 193 293 193 250 L193 96 C193 51 173 8 151 8 L100 8 L100 8 Z " />
<glyph glyph-name="H_sc" unicode="&#x29c;" horiz-adv-x="291" d="M251 0 L251 640 L192 640 L192 337 L99 337 L99 640 L40 640 L40 0 L99 0 L99 329 L192 329 L192 0 L251 0 L251 0 Z " />
<glyph glyph-name="L_sc" unicode="&#x29f;" horiz-adv-x="210" d="M195 8 L99 8 L99 640 L40 640 L40 0 L195 0 L195 8 L195 8 Z " />
<glyph glyph-name="circumflex" unicode="&#x2c6;" horiz-adv-x="465" d="M200 700 L150 640 L157 640 L233 682 L309 640 L315 640 L265 700 L200 700 L200 700 Z " />
<glyph glyph-name="caron" unicode="&#x2c7;" horiz-adv-x="465" d="M309 700 L233 658 L157 700 L150 700 L200 640 L265 640 L315 700 L309 700 L309 700 Z " />
<glyph glyph-name="firsttonechinese" unicode="&#x2c9;" horiz-adv-x="465" d="M118 640 L348 640 L348 681 L118 681 L118 640 L118 640 Z " />
<glyph glyph-name="breve" unicode="&#x2d8;" horiz-adv-x="465" d="M152 704 L146 704 C146 664 179 640 233 640 C285 640 318 664 318 704 L312 704 C312 685 282 674 233 674 C183 674 152 685 152 704 L152 704 Z " />
<glyph glyph-name="dotaccent" unicode="&#x2d9;" horiz-adv-x="465" d="M202 640 L264 640 L264 700 L202 700 L202 640 L202 640 Z " />
<glyph glyph-name="ring" unicode="&#x2da;" horiz-adv-x="465" d="M233 706 C255 706 256 643 234 643 C211 643 211 706 234 706 L233 706 L233 706 Z M187 674 C187 657 210 640 234 640 C258 640 280 657 280 674 C280 692 258 709 234 709 C210 709 187 692 187 674 L187 674 Z " />
<glyph glyph-name="A_sc" unicode="&#x1d00;" horiz-adv-x="264" d="M126 635 L28 5 C27 4 27 2 27 0 L36 0 C36 1 37 5 37 5 L73 238 L166 238 L190 0 L249 0 C249 2 249 4 248 5 L175 641 L126 641 C126 640 126 636 126 636 L126 635 L126 635 Z M165 247 L74 247 L129 606 L165 247 L165 247 Z " />
<glyph glyph-name="C_sc" unicode="&#x1d04;" horiz-adv-x="249" d="M224 543 L224 550 L225 544 L229 543 C229 554 227 565 224 575 L224 575 C211 617 174 650 136 650 C87 650 41 598 41 543 L41 97 C41 42 87 -10 136 -10 C184 -10 230 42 230 97 L230 128 L222 128 L222 96 C222 46 180 -2 136 -2 C117 -2 100 42 100 88 C100 88 99 310 99 552 C99 598 117 642 136 642 C180 642 222 594 222 544 L222 511 L230 511 L230 543 L224 543 L224 543 Z " />
<glyph glyph-name="D_sc" unicode="&#x1d05;" horiz-adv-x="291" d="M142 0 C198 0 251 47 251 96 L251 545 C251 594 198 640 142 640 L40 640 L40 0 L142 0 L142 0 Z M99 8 L99 632 L142 632 C168 632 192 588 192 542 L192 96 C192 51 168 8 142 8 L99 8 L99 8 Z " />
<glyph glyph-name="E_sc" unicode="&#x1d07;" horiz-adv-x="230" d="M210 8 L99 8 L99 330 L178 330 L178 338 L99 338 L99 632 L205 632 L205 640 L40 640 L40 0 L210 0 L210 8 L210 8 Z " />
<glyph glyph-name="J_sc" unicode="&#x1d0a;" horiz-adv-x="249" d="M153 640 C153 590 154 227 154 91 C154 43 132 -2 109 -2 C88 -2 69 41 68 87 C68 87 67 110 67 142 L9 142 L9 94 C9 40 58 -10 109 -10 C160 -10 209 41 209 95 L209 640 L153 640 L153 640 Z " />
<glyph glyph-name="K_sc" unicode="&#x1d0b;" horiz-adv-x="263" d="M248 640 C248 639 246 635 246 635 L99 237 L99 640 L40 640 L40 0 L99 0 L99 216 L121 275 L195 4 C195 2 196 1 196 1 L258 1 L257 5 L257 6 L257 6 L156 368 L256 637 C257 638 258 642 258 642 L248 640 L248 640 Z " />
<glyph glyph-name="M_sc" unicode="&#x1d0d;" horiz-adv-x="353" d="M202 137 L202 137 L202 137 Z M313 0 L313 582 L324 640 L283 640 L193 180 L102 640 L40 640 L40 0 L99 0 L99 625 L196 134 L197 134 L197 134 L214 49 L217 67 L306 539 L306 0 L313 0 L313 0 Z " />
<glyph glyph-name="O_sc" unicode="&#x1d0f;" horiz-adv-x="280" d="M181 87 C181 41 161 -2 140 -2 C118 -2 98 41 98 87 L98 553 C98 599 118 642 140 642 C161 642 181 599 181 553 L181 87 L181 87 Z M240 98 L240 542 C240 598 191 650 140 650 C88 650 39 598 39 542 L39 98 C39 42 88 -10 140 -10 C191 -10 240 42 240 98 L240 98 Z " />
<glyph glyph-name="P_sc" unicode="&#x1d18;" horiz-adv-x="276" d="M99 0 L99 261 L149 261 C201 261 251 309 251 359 L251 545 C251 594 201 640 149 640 L40 640 L40 0 L99 0 L99 0 Z M99 268 L99 632 L149 632 C171 632 192 588 192 542 L192 359 C192 312 171 268 149 268 L99 268 L99 268 Z " />
<glyph glyph-name="T_sc" unicode="&#x1d1b;" horiz-adv-x="240" d="M235 640 L5 640 L5 632 L91 632 L91 0 L149 0 L149 632 L235 632 L235 640 L235 640 Z " />
<glyph glyph-name="U_sc" unicode="&#x1d1c;" horiz-adv-x="267" d="M219 640 L219 94 C219 45 177 -2 133 -2 C115 -2 98 41 98 87 L98 640 L39 640 L39 98 C39 42 85 -10 133 -10 C181 -10 227 41 227 95 L227 640 L219 640 L219 640 Z " />
<glyph glyph-name="V_sc" unicode="&#x1d20;" horiz-adv-x="239" d="M215 635 L148 53 L73 635 C74 635 74 635 74 635 L73 639 L14 639 C14 637 14 635 15 634 L106 -1 L155 -1 L152 20 L223 635 C224 636 224 638 224 640 L216 640 C216 639 215 635 215 635 L215 635 Z " />
<glyph glyph-name="W_sc" unicode="&#x1d21;" horiz-adv-x="392" d="M364 640 L356 640 L320 46 L213 640 L161 640 L173 575 L114 0 L84 640 L29 640 L29 635 L29 635 L69 0 L121 0 L178 551 L283 0 L328 0 L325 17 C338 223 350 430 364 636 L364 640 L364 640 Z " />
<glyph glyph-name="Z_sc" unicode="&#x1d22;" horiz-adv-x="241" d="M20 632 L155 632 L21 8 L20 6 L20 0 L219 0 L219 8 L81 8 L215 632 L218 640 L20 640 L20 632 L20 632 Z " />
<glyph glyph-name="Wgrave" unicode="&#x1e80;" horiz-adv-x="445" d="M220 740 L226 740 L184 800 L118 800 L220 740 L220 740 Z M417 700 L408 700 L372 51 L242 700 L184 700 L197 640 L119 0 L90 700 L29 700 L29 695 L29 695 L69 0 L126 0 L202 613 L331 0 L382 0 L378 19 C391 244 403 470 417 695 L417 700 L417 700 Z " />
<glyph glyph-name="wgrave" unicode="&#x1e81;" horiz-adv-x="443" d="M218 640 L224 640 L182 700 L116 700 L218 640 L218 640 Z M413 600 L404 600 L369 40 L237 600 L187 600 L198 553 L117 10 L90 600 L28 600 L28 595 L28 595 L68 0 L123 0 L201 535 L328 0 L377 0 L373 17 C386 210 398 404 412 596 L413 600 L413 600 Z " />
<glyph glyph-name="Wacute" unicode="&#x1e82;" horiz-adv-x="445" d="M220 740 L226 740 L328 800 L262 800 L220 740 L220 740 Z M417 700 L408 700 L372 51 L242 700 L184 700 L197 640 L119 0 L90 700 L29 700 L29 695 L29 695 L69 0 L126 0 L202 613 L331 0 L382 0 L378 19 C391 244 403 470 417 695 L417 700 L417 700 Z " />
<glyph glyph-name="wacute" unicode="&#x1e83;" horiz-adv-x="443" d="M218 640 L224 640 L326 700 L260 700 L218 640 L218 640 Z M413 600 L404 600 L369 40 L237 600 L187 600 L198 553 L117 10 L90 600 L28 600 L28 595 L28 595 L68 0 L123 0 L201 535 L328 0 L377 0 L373 17 C386 210 398 404 412 596 L413 600 L413 600 Z " />
<glyph glyph-name="Wdieresis" unicode="&#x1e84;" horiz-adv-x="445" d="M238 740 L295 740 L295 797 L238 797 L238 740 L238 740 Z M151 740 L208 740 L208 797 L151 797 L151 740 L151 740 Z M417 700 L408 700 L372 51 L242 700 L184 700 L197 640 L119 0 L90 700 L29 700 L29 695 L29 695 L69 0 L126 0 L202 613 L331 0 L382 0 L378 19 C391 244 403 470 417 695 L417 700 L417 700 Z " />
<glyph glyph-name="wdieresis" unicode="&#x1e85;" horiz-adv-x="443" d="M236 640 L293 640 L293 697 L236 697 L236 640 L236 640 Z M149 640 L206 640 L206 697 L149 697 L149 640 L149 640 Z M413 600 L404 600 L369 40 L237 600 L187 600 L198 553 L117 10 L90 600 L28 600 L28 595 L28 595 L68 0 L123 0 L201 535 L328 0 L377 0 L373 17 C386 210 398 404 412 596 L413 600 L413 600 Z " />
<glyph glyph-name="Ygrave" unicode="&#x1ef2;" horiz-adv-x="336" d="M164 740 L170 740 L128 800 L62 800 L164 740 L164 740 Z M34 695 L142 296 L142 0 L208 0 L208 296 C239 429 269 562 300 695 L300 696 L301 700 L291 700 C291 700 290 697 290 695 L201 295 L191 295 L102 695 C102 697 101 699 101 699 L33 699 L34 694 L34 695 L34 695 Z " />
<glyph glyph-name="ygrave" unicode="&#x1ef3;" horiz-adv-x="317" d="M155 640 L162 640 L120 700 L54 700 L155 640 L155 640 Z M34 595 C34 595 34 154 35 152 C35 101 82 53 131 53 C172 53 211 95 220 145 C220 70 220 2 220 -43 C220 -68 190 -92 158 -92 C99 -92 43 -65 43 -37 L43 1 L34 1 L34 -36 C34 -69 94 -100 158 -100 C222 -100 282 -68 282 -34 L282 600 L219 600 C219 559 220 346 220 159 C217 107 177 60 135 60 C115 60 97 111 97 166 L97 599 L35 599 L34 595 L34 595 Z " />
<glyph glyph-name="endash" unicode="&#x2013;" horiz-adv-x="310" d="M10 403 L300 403 L300 439 L10 439 L10 403 L10 403 Z " />
<glyph glyph-name="emdash" unicode="&#x2014;" horiz-adv-x="410" d="M10 403 L400 403 L400 439 L10 439 L10 403 L10 403 Z " />
<glyph glyph-name="quoteleft" unicode="&#x2018;" horiz-adv-x="100" d="M14 518 L85 518 L85 599 L53 599 L53 622 C53 663 67 703 82 705 L81 710 C47 706 14 657 14 609 L14 518 L14 518 Z " />
<glyph glyph-name="quoteright" unicode="&#x2019;" horiz-adv-x="100" d="M82 700 L11 700 L11 619 L43 619 L43 596 C43 555 29 515 14 513 L15 508 C49 512 82 561 82 609 L82 700 L82 700 Z " />
<glyph glyph-name="quotedblleft" unicode="&#x201c;" horiz-adv-x="212" d="M126 518 L197 518 L197 599 L165 599 L165 622 C165 663 179 703 194 705 L193 710 C159 706 126 657 126 609 L126 518 L126 518 Z M14 518 L85 518 L85 599 L53 599 L53 622 C53 663 67 703 82 705 L81 710 C47 706 14 657 14 609 L14 518 L14 518 Z " />
<glyph glyph-name="quotedblright" unicode="&#x201d;" horiz-adv-x="212" d="M194 700 L123 700 L123 619 L155 619 L155 596 C155 555 141 515 126 513 L127 508 C161 512 194 561 194 609 L194 700 L194 700 Z M82 700 L11 700 L11 619 L43 619 L43 596 C43 555 29 515 14 513 L15 508 C49 512 82 561 82 609 L82 700 L82 700 Z " />
<glyph glyph-name="bullet" unicode="&#x2022;" horiz-adv-x="141" d="M123 251 L123 343 C123 370 98 396 71 396 C44 396 18 370 18 343 L18 251 C18 224 44 198 71 198 C98 198 123 224 123 251 L123 251 Z " />
<glyph glyph-name="ellipsis" unicode="&#x2026;" horiz-adv-x="595" d="M453 -10 L515 -10 L515 52 L453 52 L453 -10 L453 -10 Z M267 -10 L329 -10 L329 52 L267 52 L267 -10 L267 -10 Z M80 -10 L142 -10 L142 52 L80 52 L80 -10 L80 -10 Z " />
<glyph glyph-name="perthousand" unicode="&#x2030;" horiz-adv-x="412" d="M606 49 C606 24 593 1 578 1 C565 1 552 24 552 49 L552 316 C552 340 565 363 578 363 C593 363 606 340 606 315 L606 49 L606 49 Z M651 50 L651 314 C651 342 616 369 578 369 C541 369 506 342 506 314 L506 50 C506 22 541 -5 578 -5 C616 -5 651 22 651 50 L651 50 Z M369 49 C369 24 356 1 341 1 C328 1 315 24 315 49 L315 316 C315 340 328 363 341 363 C356 363 369 340 369 315 L369 49 L369 49 Z M414 50 L414 314 C414 342 379 369 341 369 C304 369 269 342 269 314 L269 50 C269 22 304 -5 341 -5 C379 -5 414 22 414 50 L414 50 Z M110 379 C110 354 97 331 82 331 C69 331 56 354 56 379 L56 646 C56 670 69 693 82 693 C97 693 110 670 110 645 L110 379 L110 379 Z M155 380 L155 644 C155 672 120 699 82 699 C45 699 10 672 10 644 L10 380 C10 352 45 325 82 325 C120 325 155 352 155 380 L155 380 Z M10 0 L15 0 L402 700 L398 700 L10 0 L10 0 Z " />
<glyph glyph-name="guilsinglleft" unicode="&#x2039;" horiz-adv-x="166" d="M158 535 L149 535 L5 393 L149 251 L158 251 L64 393 L158 535 L158 535 Z " />
<glyph glyph-name="guilsinglright" unicode="&#x203a;" horiz-adv-x="185" d="M19 535 L118 393 L19 251 L28 251 L177 393 L28 535 L19 535 L19 535 Z " />
<glyph glyph-name="fraction" unicode="&#x2044;" horiz-adv-x="412" d="M10 0 L15 0 L402 700 L398 700 L10 0 L10 0 Z " />
<glyph glyph-name="zerosuperior" unicode="&#x2070;" horiz-adv-x="164" d="M113 437 C113 415 102 395 90 395 C79 395 68 415 68 437 L68 665 C68 685 79 705 90 705 C102 705 113 685 113 664 L113 437 L113 437 Z M152 438 L152 663 C152 687 122 710 90 710 C58 710 28 687 28 663 L28 438 C28 414 58 391 90 391 C122 391 152 414 152 438 L152 438 Z " />
<glyph glyph-name="foursuperior" unicode="&#x2074;" horiz-adv-x="160" d="M172 490 L132 490 L132 521 C132 548 127 624 125 624 C125 624 94 547 94 521 L94 490 L33 490 C93 630 148 700 148 700 L117 700 C117 700 73 598 27 490 L27 485 L94 485 L94 400 L132 400 L132 485 L172 485 L172 490 L172 490 Z " />
<glyph glyph-name="Euro" unicode="&#x20ac;" horiz-adv-x="331" d="M311 139 L245 139 C245 139 246 104 246 92 C246 44 216 -1 185 -1 C155 -1 126 42 126 87 C126 87 126 174 126 302 L256 302 L256 307 L126 307 C126 339 126 373 126 409 L256 409 L256 414 L126 414 C126 476 126 544 126 613 C126 658 155 701 186 701 C217 701 246 657 246 610 L246 557 L312 557 L312 599 C312 656 251 710 186 710 C122 710 62 658 62 602 C62 538 62 474 62 414 L6 414 L6 409 L62 409 C62 373 62 339 62 307 L6 307 L6 302 L62 302 C62 182 62 98 62 98 C62 42 123 -10 187 -10 C251 -10 312 43 312 100 C312 110 313 139 313 139 L311 139 L311 139 Z " />
<glyph glyph-name="minus" unicode="&#x2212;" horiz-adv-x="414" d="M12 282 L402 282 L402 318 L12 318 L12 282 L12 282 Z " />
<glyph glyph-name="F_sc" unicode="&#xa730;" horiz-adv-x="215" d="M178 320 L99 320 L99 632 L195 632 L195 640 L40 640 L40 0 L99 0 L99 311 L178 311 L178 320 L178 320 Z " />
<glyph glyph-name="S_sc" unicode="&#xa731;" horiz-adv-x="249" d="M24 122 L24 81 C24 34 73 -10 124 -10 C175 -10 223 45 223 104 C223 166 192 275 151 341 C113 404 83 493 83 547 C83 596 103 642 125 642 C146 642 166 602 166 559 L166 524 L224 524 L224 559 C224 606 176 650 125 650 C74 650 25 596 25 538 C25 473 56 372 97 306 C135 244 164 147 164 94 C164 45 145 -2 124 -2 C102 -2 82 38 82 81 L82 122 L24 122 L24 122 Z " />
</font>
</svg>
